<svg width="28" height="27" viewBox="0 0 28 27" fill="none" xmlns="http://www.w3.org/2000/svg">
<circle cx="12" cy="15" r="10.5" stroke="#ADABB0"/>
<path d="M11.5 10.5H12.5V19.5H11.5V10.5Z" fill="#ADABB0"/>
<path d="M7.5 15.5L7.5 14.5L16.5 14.5L16.5 15.5L7.5 15.5Z" fill="#ADABB0"/>
<rect x="15" width="13" height="13" rx="6.5" fill="#869CFF"/>
<path d="M20.8633 7.25391C20.8633 6.88932 20.9076 6.59896 20.9961 6.38281C21.0846 6.16667 21.2461 5.95443 21.4805 5.74609C21.7174 5.53516 21.875 5.36458 21.9531 5.23438C22.0312 5.10156 22.0703 4.96224 22.0703 4.81641C22.0703 4.3763 21.8672 4.15625 21.4609 4.15625C21.2682 4.15625 21.1133 4.21615 20.9961 4.33594C20.8815 4.45312 20.8216 4.61589 20.8164 4.82422H19.6836C19.6888 4.32682 19.849 3.9375 20.1641 3.65625C20.4818 3.375 20.9141 3.23438 21.4609 3.23438C22.013 3.23438 22.4414 3.36849 22.7461 3.63672C23.0508 3.90234 23.2031 4.27865 23.2031 4.76562C23.2031 4.98698 23.1536 5.19661 23.0547 5.39453C22.9557 5.58984 22.7826 5.80729 22.5352 6.04688L22.2188 6.34766C22.0208 6.53776 21.9076 6.76042 21.8789 7.01562L21.8633 7.25391H20.8633ZM20.75 8.45312C20.75 8.27865 20.8086 8.13542 20.9258 8.02344C21.0456 7.90885 21.1979 7.85156 21.3828 7.85156C21.5677 7.85156 21.7188 7.90885 21.8359 8.02344C21.9557 8.13542 22.0156 8.27865 22.0156 8.45312C22.0156 8.625 21.957 8.76693 21.8398 8.87891C21.7253 8.99089 21.5729 9.04688 21.3828 9.04688C21.1927 9.04688 21.0391 8.99089 20.9219 8.87891C20.8073 8.76693 20.75 8.625 20.75 8.45312Z" fill="white"/>
</svg>
