<svg width="24" height="24" viewBox="0 0 24 24" fill="none" xmlns="http://www.w3.org/2000/svg">
<path d="M22 12L18 8V11H13V13H18V16L22 12ZM15 18V6C15 5.46957 14.7893 4.96086 14.4142 4.58579C14.0391 4.21071 13.5304 4 13 4H7C6.46957 4 5.96086 4.21071 5.58579 4.58579C5.21071 4.96086 5 5.46957 5 6V11V13V15H7V13V11V6H13V18H7V15H5V18C5 18.5304 5.21071 19.0391 5.58579 19.4142C5.96086 19.7893 6.46957 20 7 20H13C13.5304 20 14.0391 19.7893 14.4142 19.4142C14.7893 19.0391 15 18.5304 15 18Z" fill="#8C9DC5"/>
<path d="M7 11V13H11V11H10.5H7Z" fill="#8C9DC5"/>
<path d="M5 13V11H2V11.5V13H5Z" fill="#8C9DC5"/>
</svg>
