<svg width="24" height="24" viewBox="0 0 24 24" fill="none" xmlns="http://www.w3.org/2000/svg">
<path d="M17.1329 14.2763C17.1744 14.1459 17.1981 14.0038 17.1981 13.8379C17.2099 13.1093 17.5239 12.5643 18.1459 12.197C18.7679 11.8238 18.9041 11.3262 18.5487 10.6924C18.1933 10.0586 18.1933 9.42473 18.5487 8.79681C18.9041 8.16297 18.7679 7.66538 18.1459 7.29218C17.5239 6.91899 17.204 6.374 17.1981 5.65131C17.1862 4.92861 16.819 4.56134 16.0963 4.54949C15.3736 4.53765 14.8227 4.22369 14.4554 3.6017C14.0822 2.97971 13.5846 2.84346 12.9508 3.19888C12.3169 3.55431 11.6831 3.55431 11.0552 3.19888C10.4213 2.83754 9.92373 2.96786 9.55054 3.59577C9.18327 4.21777 8.63236 4.53765 7.90374 4.54357C7.18104 4.54949 6.81377 4.91677 6.80193 5.64538C6.79008 6.36808 6.47612 6.91899 5.85413 7.28626C5.23214 7.65945 5.09589 8.15705 5.45131 8.79089C5.80674 9.42473 5.80674 10.0586 5.45131 10.6865C5.09589 11.3203 5.23214 11.8179 5.85413 12.1911C6.47612 12.5584 6.796 13.1093 6.80193 13.832C6.80193 13.9623 6.83154 14.0689 6.85524 14.1815L4 19.8031L6.38726 19.5365L7.70826 21.521C7.70826 21.521 9.44391 17.9075 10.1548 16.4384C10.4154 16.5273 10.7175 16.4799 11.0552 16.2903C11.689 15.9349 12.3228 15.9349 12.9508 16.2903C13.3062 16.4917 13.6201 16.5273 13.8926 16.4147L16.8249 21.4618L17.6483 19.3233L20 19.6254L17.1329 14.2763ZM12.003 14.0689C9.55054 14.0689 7.55424 12.0786 7.55424 9.62613C7.55424 7.17371 9.54461 5.17741 12.003 5.17741C14.4613 5.17741 16.4458 7.16778 16.4458 9.62613C16.4517 12.0786 14.4554 14.0689 12.003 14.0689Z" fill="#7F7989"/>
<path d="M12.0026 13.1566C13.9328 13.1566 15.4976 11.5919 15.4976 9.66163C15.4976 7.73139 13.9328 6.16663 12.0026 6.16663C10.0724 6.16663 8.50759 7.73139 8.50759 9.66163C8.50759 11.5919 10.0724 13.1566 12.0026 13.1566Z" fill="#7F7989"/>
</svg>
