<svg width="24" height="24" viewBox="0 0 24 24" fill="none" xmlns="http://www.w3.org/2000/svg">
<g clip-path="url(#clip0)">
<path d="M2.01001 7.00952V8.12952C2.01189 8.26141 2.0658 8.38721 2.16001 8.47952L9.44001 15.8395C9.53422 15.9318 9.58813 16.0576 9.59001 16.1895V21.0795C9.58982 21.1732 9.61597 21.2651 9.66548 21.3447C9.71499 21.4242 9.78586 21.4883 9.87001 21.5295L13.82 22.9395C13.8963 22.9769 13.9809 22.9942 14.0657 22.9899C14.1506 22.9855 14.233 22.9596 14.305 22.9145C14.3771 22.8695 14.4365 22.8068 14.4776 22.7325C14.5187 22.6581 14.5402 22.5745 14.54 22.4895V16.0995C14.5538 15.9644 14.6181 15.8394 14.72 15.7495L21.84 8.49952C21.9342 8.40721 21.9881 8.28141 21.99 8.14952V7.00952H2.01001Z" fill="#A98982"/>
<rect x="2.11139" y="1.00952" width="4" height="4" fill="#A98982"/>
<rect x="10.0318" y="1.00952" width="4" height="4" fill="#A98982"/>
<rect x="17.9522" y="1.00952" width="4" height="4" fill="#A98982"/>
</g>
<defs>
<clipPath id="clip0">
<rect width="24" height="24" fill="white"/>
</clipPath>
</defs>
</svg>
