<svg width="32" height="32" viewBox="0 0 32 32" fill="none" xmlns="http://www.w3.org/2000/svg">
<rect x="3.5" y="3.5" width="25" height="25" rx="12.5" fill="white" stroke="#A98982"/>
<g clip-path="url(#clip0)">
<path d="M9.34 12.673V13.4196C9.34125 13.5076 9.37719 13.5914 9.44 13.653L14.2933 18.5596C14.3561 18.6212 14.3921 18.7051 14.3933 18.793V22.053C14.3932 22.1154 14.4106 22.1767 14.4436 22.2297C14.4766 22.2828 14.5239 22.3255 14.58 22.353L17.2133 23.293C17.2642 23.3179 17.3206 23.3294 17.3772 23.3265C17.4337 23.3236 17.4886 23.3063 17.5367 23.2763C17.5847 23.2463 17.6243 23.2045 17.6517 23.1549C17.6791 23.1054 17.6934 23.0496 17.6933 22.993V18.733C17.7026 18.6429 17.7454 18.5596 17.8133 18.4996L22.56 13.6663C22.6228 13.6048 22.6587 13.5209 22.66 13.433V12.673H9.34Z" fill="#A98982"/>
<rect x="9.40759" y="8.67297" width="2.66667" height="2.66667" fill="#A98982"/>
<rect x="14.6879" y="8.67297" width="2.66667" height="2.66667" fill="#A98982"/>
<rect x="19.9681" y="8.67297" width="2.66667" height="2.66667" fill="#A98982"/>
</g>
<defs>
<clipPath id="clip0">
<rect width="16" height="16" fill="white" transform="translate(8 8)"/>
</clipPath>
</defs>
</svg>
