<svg width="24" height="24" viewBox="0 0 24 24" fill="none" xmlns="http://www.w3.org/2000/svg">
<path d="M12 1.92664C6.87052 1.92664 3 3.88962 3 6.49996V17.5C3 20.1103 6.87052 22.0733 12 22.0733C17.1295 22.0733 21 20.1103 21 17.5V6.49996C21 3.88962 17.1295 1.92664 12 1.92664ZM18.9191 9.06831C18.0347 10.1125 15.3607 11.1566 12 11.1566C10.5943 11.1712 9.19342 10.9885 7.83815 10.6136V12.1381C9.19994 12.4734 10.5979 12.6382 12 12.6288C14.411 12.727 16.8031 12.1638 18.9191 11V13.2712C18.0347 14.3153 15.3607 15.3595 12 15.3595C10.5938 15.3707 9.19293 15.1844 7.83815 14.8061V16.3305C9.19994 16.6658 10.5979 16.8307 12 16.8213C14.411 16.9194 16.8031 16.3563 18.9191 15.1924V17.5835C18.9191 18.5754 16.1618 20.0685 12 20.0685C7.83815 20.0685 5.08092 18.5754 5.08092 17.5835V6.49996C5.08092 5.50803 7.83815 4.01491 12 4.01491C16.1618 4.01491 18.9191 5.50803 18.9191 6.49996V9.06831Z" fill="#7F7989"/>
</svg>
