<svg width="24" height="24" viewBox="0 0 24 24" fill="none" xmlns="http://www.w3.org/2000/svg">
<path d="M12 13.2917C6.5 13.2917 2 12.8504 2 13.8958C2 14.9412 6.5 15.7917 12 15.7917C17.5 15.7917 22 14.9412 22 13.8958C22 12.8504 17.5 13.2917 12 13.2917ZM2 15.6617V18.2292C2 19.2746 6.5 20.125 12 20.125C17.5 20.125 22 19.2746 22 18.2292V15.6617C21.33 15.9108 20.58 16.1004 19.73 16.2575C17.62 16.6583 14.95 16.875 12 16.875C9.05 16.875 6.38 16.6583 4.27 16.2575C3.42 16.1004 2.67 15.9108 2 15.6617Z" fill="#7F7989"/>
<path d="M12 9.25C6.5 9.25 2 8.12417 2 9.25001C2 10.3758 6.5 11.2917 12 11.2917C17.5 11.2917 22 10.3758 22 9.25001C22 8.12417 17.5 9.25 12 9.25ZM2 11.1517V13.9167C2 15.0425 6.5 15.9583 12 15.9583C17.5 15.9583 22 15.0425 22 13.9167V11.1517C21.33 11.42 20.58 11.6242 19.73 11.7933C17.62 12.225 14.95 12.4583 12 12.4583C9.05 12.4583 6.38 12.225 4.27 11.7933C3.42 11.6242 2.67 11.42 2 11.1517Z" fill="#7F7989"/>
<path d="M12 3C6.5 3 2 3.85042 2 4.89583C2 5.94125 6.5 6.79167 12 6.79167C17.5 6.79167 22 5.94125 22 4.89583C22 3.85042 17.5 3 12 3ZM2 6.66167V9.22917C2 10.2746 6.5 11.125 12 11.125C17.5 11.125 22 10.2746 22 9.22917V6.66167C21.33 6.91083 20.58 7.10042 19.73 7.2575C17.62 7.65833 14.95 7.875 12 7.875C9.05 7.875 6.38 7.65833 4.27 7.2575C3.42 7.10042 2.67 6.91083 2 6.66167Z" fill="#7F7989"/>
</svg>
