<svg width="33" height="33" viewBox="0 0 33 33" fill="none" xmlns="http://www.w3.org/2000/svg">
<rect x="4.16666" y="4" width="25" height="25" rx="12.5" fill="white" stroke="#1FCC9E"/>
<g clip-path="url(#clip0)">
<path d="M18 20.5V19.1667L15.3333 21.5L18 23.8334V22.5H20V20.5H18ZM23.3333 18.8334L20.6666 16.5V17.8334H18.6666V19.8334H20.6666V21.1667L23.3333 18.8334ZM23.1066 14.32L21.7733 12.0134C21.6933 11.8667 21.52 11.8067 21.3666 11.8667L19.7066 12.5334C19.3666 12.26 19 12.04 18.58 11.8667L18.3333 10.1134C18.3198 10.0349 18.2789 9.96366 18.2179 9.91241C18.1568 9.86116 18.0797 9.83316 18 9.83338H15.3333C15.1666 9.83338 15.0266 9.95338 15 10.1134L14.7533 11.88C14.3333 12.0534 13.9733 12.2734 13.6266 12.5467L12 11.8667C11.8466 11.8067 11.6666 11.8667 11.5933 12.0134L10.26 14.32C10.1733 14.46 10.2066 14.6467 10.3333 14.7467L11.7133 15.8334C11.6866 16.0534 11.6666 16.28 11.6666 16.5C11.6666 16.72 11.6866 16.9467 11.7133 17.1667L10.3066 18.2534C10.1733 18.3534 10.14 18.54 10.2266 18.68L11.56 20.9867C11.6333 21.1667 11.8266 21.24 12 21.1667L13.6666 20.5C13.8266 20.6267 14 20.7467 14.1733 20.8534L16.5133 18.8534C15.8952 18.8109 15.3189 18.5256 14.9105 18.0596C14.502 17.5937 14.2945 16.9851 14.3333 16.3667C14.4333 15.08 15.5466 14.1067 16.8333 14.2C17.7933 14.26 18.6133 14.9134 18.9 15.8334H21.62L23.0266 14.7467C23.1533 14.6467 23.1866 14.46 23.1066 14.32Z" fill="#1FCC9E"/>
</g>
<defs>
<clipPath id="clip0">
<rect width="16" height="16" fill="white" transform="translate(8.66666 8.5)"/>
</clipPath>
</defs>
</svg>
