<svg width="25" height="24" viewBox="0 0 25 24" fill="none" xmlns="http://www.w3.org/2000/svg">
<g clip-path="url(#clip0)">
<path d="M14.5 18V16L10.5 19.5L14.5 23V21H17.5V18H14.5ZM22.5 15.5L18.5 12V14H15.5V17H18.5V19L22.5 15.5ZM22.16 8.73L20.16 5.27C20.04 5.05 19.78 4.96 19.55 5.05L17.06 6.05C16.55 5.64 16 5.31 15.37 5.05L15 2.42C14.9797 2.30222 14.9183 2.19543 14.8268 2.11855C14.7353 2.04168 14.6195 1.99968 14.5 2H10.5C10.25 2 10.04 2.18 9.99999 2.42L9.62999 5.07C8.99999 5.33 8.45999 5.66 7.93999 6.07L5.49999 5.05C5.26999 4.96 4.99999 5.05 4.88999 5.27L2.88999 8.73C2.75999 8.94 2.80999 9.22 2.99999 9.37L5.06999 11C5.02999 11.33 4.99999 11.67 4.99999 12C4.99999 12.33 5.02999 12.67 5.06999 13L2.95999 14.63C2.75999 14.78 2.70999 15.06 2.83999 15.27L4.83999 18.73C4.94999 19 5.23999 19.11 5.49999 19L7.99999 18C8.23999 18.19 8.49999 18.37 8.75999 18.53L12.27 15.53C11.3428 15.4663 10.4784 15.0383 9.86572 14.3394C9.25304 13.6405 8.9418 12.7276 8.99999 11.8C9.14999 9.87 10.82 8.41 12.75 8.55C14.19 8.64 15.42 9.62 15.85 11H19.93L22.04 9.37C22.23 9.22 22.28 8.94 22.16 8.73Z" fill="#1FCC9E"/>
</g>
<defs>
<clipPath id="clip0">
<rect width="24" height="24" fill="white" transform="translate(0.5)"/>
</clipPath>
</defs>
</svg>
