<svg width="24" height="24" viewBox="0 0 24 24" fill="none" xmlns="http://www.w3.org/2000/svg">
<path fill-rule="evenodd" clip-rule="evenodd" d="M3.18488 12C4.78877 15.2615 8.13541 17.5 12 17.5C15.8646 17.5 19.2112 15.2615 20.8151 12C19.2112 8.73854 15.8646 6.5 12 6.5C8.13541 6.5 4.78877 8.73854 3.18488 12ZM23 12C21.27 16.39 17 19.5 12 19.5C7 19.5 2.73 16.39 1 12C2.73 7.61 7 4.5 12 4.5C17 4.5 21.27 7.61 23 12Z" fill="#8C9DC5"/>
<path fill-rule="evenodd" clip-rule="evenodd" d="M12 14C13.1046 14 14 13.1046 14 12C14 10.8954 13.1046 10 12 10C10.8954 10 10 10.8954 10 12C10 13.1046 10.8954 14 12 14ZM12 16C14.2091 16 16 14.2091 16 12C16 9.79086 14.2091 8 12 8C9.79086 8 8 9.79086 8 12C8 14.2091 9.79086 16 12 16Z" fill="#8C9DC5"/>
</svg>
