<svg width="33" height="33" viewBox="0 0 33 33" fill="none" xmlns="http://www.w3.org/2000/svg">
<rect x="3.83331" y="4" width="25" height="25" rx="12.5" fill="white" stroke="#A44CC5"/>
<path d="M23 19.1667V11.1667C23 10.4334 22.4 9.83337 21.6667 9.83337H13.6667C12.9333 9.83337 12.3333 10.4334 12.3333 11.1667V19.1667C12.3333 19.9 12.9333 20.5 13.6667 20.5H21.6667C22.4 20.5 23 19.9 23 19.1667ZM15.6667 16.5L17.02 18.3067L19 15.8334L21.6667 19.1667H13.6667L15.6667 16.5ZM9.66666 12.5V21.8334C9.66666 22.5667 10.2667 23.1667 11 23.1667H20.3333V21.8334H11V12.5H9.66666Z" fill="#A44CC5"/>
</svg>
