<svg width="48" height="48" viewBox="0 0 48 48" fill="none" xmlns="http://www.w3.org/2000/svg">
<path fill-rule="evenodd" clip-rule="evenodd" d="M31.3337 5.5H16.667C16.3908 5.5 16.167 5.72386 16.167 6V15.3333C16.167 15.6095 16.3908 15.8333 16.667 15.8333H31.3337C31.6098 15.8333 31.8337 15.6095 31.8337 15.3333V6C31.8337 5.72386 31.6098 5.5 31.3337 5.5ZM16.667 4C15.5624 4 14.667 4.89543 14.667 6V15.3333C14.667 16.4379 15.5624 17.3333 16.667 17.3333H31.3337C32.4382 17.3333 33.3337 16.4379 33.3337 15.3333V6C33.3337 4.89543 32.4382 4 31.3337 4H16.667Z" fill="#4A456A"/>
<path fill-rule="evenodd" clip-rule="evenodd" d="M19.3337 32.1667H4.66699C4.39085 32.1667 4.16699 32.3905 4.16699 32.6667V42C4.16699 42.2761 4.39085 42.5 4.66699 42.5H19.3337C19.6098 42.5 19.8337 42.2761 19.8337 42V32.6667C19.8337 32.3905 19.6098 32.1667 19.3337 32.1667ZM4.66699 30.6667C3.56242 30.6667 2.66699 31.5621 2.66699 32.6667V42C2.66699 43.1046 3.56242 44 4.66699 44H19.3337C20.4382 44 21.3337 43.1046 21.3337 42V32.6667C21.3337 31.5621 20.4382 30.6667 19.3337 30.6667H4.66699Z" fill="#4A456A"/>
<path fill-rule="evenodd" clip-rule="evenodd" d="M43.3337 32.1667H28.667C28.3909 32.1667 28.167 32.3905 28.167 32.6667V42C28.167 42.2761 28.3909 42.5 28.667 42.5H43.3337C43.6098 42.5 43.8337 42.2761 43.8337 42V32.6667C43.8337 32.3905 43.6098 32.1667 43.3337 32.1667ZM28.667 30.6667C27.5624 30.6667 26.667 31.5621 26.667 32.6667V42C26.667 43.1046 27.5624 44 28.667 44H43.3337C44.4382 44 45.3337 43.1046 45.3337 42V32.6667C45.3337 31.5621 44.4382 30.6667 43.3337 30.6667H28.667Z" fill="#4A456A"/>
<path fill-rule="evenodd" clip-rule="evenodd" d="M11.2503 23.25H36.7503V29.3333H35.2503V24.75H12.7503V29.3333H11.2503V23.25Z" fill="#4A456A"/>
<path fill-rule="evenodd" clip-rule="evenodd" d="M23.2503 24V18.6667H24.7503V24H23.2503Z" fill="#4A456A"/>
</svg>
