<svg width="24" height="24" viewBox="0 0 24 24" fill="none" xmlns="http://www.w3.org/2000/svg">
<path d="M8 3C7.46957 3 6.96086 3.21071 6.58579 3.58579C6.21071 3.96086 6 4.46957 6 5V9C6 9.53043 5.78929 10.0391 5.41421 10.4142C5.03914 10.7893 4.53043 11 4 11H3V13H4C4.53043 13 5.03914 13.2107 5.41421 13.5858C5.78929 13.9609 6 14.4696 6 15V19C6 19.5304 6.21071 20.0391 6.58579 20.4142C6.96086 20.7893 7.46957 21 8 21H10V19H8V14C8 13.4696 7.78929 12.9609 7.41421 12.5858C7.03914 12.2107 6.53043 12 6 12C6.53043 12 7.03914 11.7893 7.41421 11.4142C7.78929 11.0391 8 10.5304 8 10V5H10V3H8ZM16 3C16.5304 3 17.0391 3.21071 17.4142 3.58579C17.7893 3.96086 18 4.46957 18 5V9C18 9.53043 18.2107 10.0391 18.5858 10.4142C18.9609 10.7893 19.4696 11 20 11H21V13H20C19.4696 13 18.9609 13.2107 18.5858 13.5858C18.2107 13.9609 18 14.4696 18 15V19C18 19.5304 17.7893 20.0391 17.4142 20.4142C17.0391 20.7893 16.5304 21 16 21H14V19H16V14C16 13.4696 16.2107 12.9609 16.5858 12.5858C16.9609 12.2107 17.4696 12 18 12C17.4696 12 16.9609 11.7893 16.5858 11.4142C16.2107 11.0391 16 10.5304 16 10V5H14V3H16Z" fill="#8C9DC5"/>
</svg>
