<svg width="48" height="48" viewBox="0 0 48 48" fill="none" xmlns="http://www.w3.org/2000/svg">
<path d="M27.5547 19.788L27.5579 19.7883C28.1765 19.8405 28.673 20.2653 28.8543 20.8243C28.908 20.9898 29.0439 21.1155 29.2131 21.1562C29.3823 21.1969 29.5604 21.1467 29.6835 21.0236L31.1835 19.5236C31.3487 19.3584 31.3775 19.1008 31.2528 18.9032C30.5245 17.7492 29.2884 16.9264 27.8135 16.802C25.3375 16.5778 23.1557 18.4124 22.9418 20.8866C22.9418 20.8867 22.9418 20.8869 22.9418 20.887L22.712 23.5001H19.9999C19.7238 23.5001 19.4999 23.7239 19.4999 24.0001V26.0001C19.4999 26.2762 19.7238 26.5001 19.9999 26.5001H22.454L22.0719 30.8452C22.0719 30.8454 22.0719 30.8455 22.0719 30.8457C21.9962 31.6822 21.2679 32.2869 20.4452 32.2121L20.4419 32.2118C19.8234 32.1597 19.3268 31.7348 19.1455 31.1758C19.0918 31.0103 18.956 30.8846 18.7868 30.8439C18.6176 30.8032 18.4394 30.8535 18.3164 30.9765L16.8164 32.4765C16.6518 32.6411 16.6225 32.8975 16.7458 33.0949C17.1167 33.6888 17.6209 34.188 18.2183 34.5531C18.8154 34.918 19.4891 35.1388 20.1863 35.1981C20.7744 35.2511 21.3671 35.1874 21.9305 35.0108C22.4943 34.834 23.0176 34.5476 23.4704 34.168C23.9233 33.7884 24.2966 33.323 24.5691 32.7987C24.8415 32.2744 25.0077 31.7015 25.0581 31.1128C25.0581 31.1127 25.0581 31.1127 25.0581 31.1127L25.4584 26.5001H27.9999C28.2761 26.5001 28.4999 26.2762 28.4999 26.0001V24.0001C28.4999 23.7239 28.2761 23.5001 27.9999 23.5001H25.725L25.9279 21.1549C25.9279 21.1546 25.928 21.1544 25.928 21.1541C26.0038 20.3177 26.7321 19.7132 27.5547 19.788Z" stroke="url(#paint0_linear_2114_335419)" stroke-linejoin="round"/>
<path fill-rule="evenodd" clip-rule="evenodd" d="M34.1666 12.912C33.006 12.1907 31.5755 12.0934 30.614 12.2413C30.2046 12.3043 29.8217 12.0235 29.7587 11.6141C29.6957 11.2047 29.9766 10.8218 30.386 10.7588C31.5911 10.5734 33.4107 10.6761 34.9584 11.6381C36.5612 12.6343 37.75 14.4761 37.75 17.5001C37.75 21.0054 38.1384 22.9077 38.8644 23.945C39.5218 24.884 40.5685 25.2501 42.5 25.2501C42.9142 25.2501 43.25 25.5859 43.25 26.0001C43.25 26.4143 42.9142 26.7501 42.5 26.7501C40.4315 26.7501 38.7282 26.3661 37.6356 24.8052C36.6116 23.3424 36.25 20.9947 36.25 17.5001C36.25 14.924 35.2721 13.5992 34.1666 12.912Z" fill="url(#paint1_linear_2114_335419)"/>
<path fill-rule="evenodd" clip-rule="evenodd" d="M14.3334 12.912C15.494 12.1907 16.9245 12.0934 17.886 12.2413C18.2954 12.3043 18.6783 12.0235 18.7413 11.6141C18.8043 11.2047 18.5234 10.8218 18.114 10.7588C16.9089 10.5734 15.0893 10.6761 13.5416 11.6381C11.9388 12.6343 10.75 14.4761 10.75 17.5001C10.75 21.0054 10.3616 22.9077 9.63558 23.945C8.97825 24.884 7.93153 25.2501 6 25.2501C5.58579 25.2501 5.25 25.5859 5.25 26.0001C5.25 26.4143 5.58579 26.7501 6 26.7501C8.06847 26.7501 9.77175 26.3661 10.8644 24.8052C11.8884 23.3424 12.25 20.9947 12.25 17.5001C12.25 14.924 13.2279 13.5992 14.3334 12.912Z" fill="url(#paint2_linear_2114_335419)"/>
<path fill-rule="evenodd" clip-rule="evenodd" d="M34.1666 39.0881C33.006 39.8095 31.5755 39.9067 30.614 39.7588C30.2046 39.6958 29.8217 39.9767 29.7587 40.3861C29.6957 40.7955 29.9766 41.1784 30.386 41.2414C31.5911 41.4268 33.4107 41.3241 34.9584 40.3621C36.5612 39.3659 37.75 37.524 37.75 34.5001C37.75 30.9948 38.1384 29.0924 38.8644 28.0552C39.5218 27.1162 40.5685 26.7501 42.5 26.7501C42.9142 26.7501 43.25 26.4143 43.25 26.0001C43.25 25.5859 42.9142 25.2501 42.5 25.2501C40.4315 25.2501 38.7282 25.634 37.6356 27.195C36.6116 28.6578 36.25 31.0054 36.25 34.5001C36.25 37.0762 35.2721 38.401 34.1666 39.0881Z" fill="url(#paint3_linear_2114_335419)"/>
<path fill-rule="evenodd" clip-rule="evenodd" d="M14.3334 39.0881C15.494 39.8095 16.9245 39.9067 17.886 39.7588C18.2954 39.6958 18.6783 39.9767 18.7413 40.3861C18.8043 40.7955 18.5234 41.1784 18.114 41.2414C16.9089 41.4268 15.0893 41.3241 13.5416 40.3621C11.9388 39.3659 10.75 37.524 10.75 34.5001C10.75 30.9948 10.3616 29.0924 9.63558 28.0552C8.97825 27.1162 7.93153 26.7501 6 26.7501C5.58579 26.7501 5.25 26.4143 5.25 26.0001C5.25 25.5859 5.58579 25.2501 6 25.2501C8.06847 25.2501 9.77175 25.634 10.8644 27.195C11.8884 28.6578 12.25 31.0054 12.25 34.5001C12.25 37.0762 13.2279 38.401 14.3334 39.0881Z" fill="url(#paint4_linear_2114_335419)"/>
<defs>
<linearGradient id="paint0_linear_2114_335419" x1="30.8299" y1="27.1687" x2="17.1699" y2="27.1687" gradientUnits="userSpaceOnUse">
<stop stop-color="#6D5E92"/>
<stop offset="1" stop-color="#272C41"/>
</linearGradient>
<linearGradient id="paint1_linear_2114_335419" x1="43.25" y1="28.0541" x2="5.25" y2="28.0541" gradientUnits="userSpaceOnUse">
<stop stop-color="#6D5E92"/>
<stop offset="1" stop-color="#272C41"/>
</linearGradient>
<linearGradient id="paint2_linear_2114_335419" x1="43.25" y1="28.0541" x2="5.25" y2="28.0541" gradientUnits="userSpaceOnUse">
<stop stop-color="#6D5E92"/>
<stop offset="1" stop-color="#272C41"/>
</linearGradient>
<linearGradient id="paint3_linear_2114_335419" x1="43.25" y1="28.0541" x2="5.25" y2="28.0541" gradientUnits="userSpaceOnUse">
<stop stop-color="#6D5E92"/>
<stop offset="1" stop-color="#272C41"/>
</linearGradient>
<linearGradient id="paint4_linear_2114_335419" x1="43.25" y1="28.0541" x2="5.25" y2="28.0541" gradientUnits="userSpaceOnUse">
<stop stop-color="#6D5E92"/>
<stop offset="1" stop-color="#272C41"/>
</linearGradient>
</defs>
</svg>
