<svg width="24" height="24" viewBox="0 0 24 24" fill="none" xmlns="http://www.w3.org/2000/svg">
<path fill-rule="evenodd" clip-rule="evenodd" d="M15.9998 13V10L12.1398 14L15.9998 18V15H22.9897V13H15.9998ZM6.99976 17H11.9998V15H6.99976V17ZM6.99976 11V13H11.9998V11H6.99976ZM16.9998 7H6.99976V9H16.9998V7ZM18.9998 19H4.99976V5H18.9998V12H20.9998V5C20.9982 4.47005 20.787 3.96225 20.4122 3.58752C20.0375 3.21279 19.5297 3.00158 18.9998 3H14.9897C14.7755 2.41371 14.3862 1.90744 13.8746 1.54974C13.3631 1.19204 12.754 1.00018 12.1298 1.00018C11.5055 1.00018 10.8964 1.19204 10.3849 1.54974C9.87333 1.90744 9.48404 2.41371 9.26978 3H5.03979C4.90537 2.99794 4.77113 3.01134 4.63977 3.03998C4.25077 3.12067 3.89318 3.31165 3.60974 3.59003C3.42625 3.77345 3.28027 3.99078 3.17981 4.22998C3.07078 4.47222 3.01286 4.73437 3.00977 5V19C3.01503 19.2686 3.07282 19.5336 3.17981 19.78C3.2828 20.0179 3.42847 20.2347 3.60974 20.42C3.89318 20.6984 4.25077 20.8893 4.63977 20.97C4.77213 20.9903 4.90589 21.0003 5.03979 21H18.9998C19.5381 20.9897 20.0505 20.7669 20.4252 20.3802C20.7999 19.9936 21.0065 19.4744 20.9998 18.936V16.015H18.9998V19ZM12.1298 2.74902C12.2777 2.751 12.4217 2.79665 12.5437 2.88025C12.6657 2.96385 12.7603 3.08167 12.8156 3.21887C12.8708 3.35608 12.8842 3.50655 12.8541 3.65137C12.8241 3.79619 12.7519 3.92888 12.6466 4.03278C12.5413 4.13667 12.4077 4.20709 12.2625 4.23523C12.1172 4.26337 11.9669 4.24797 11.8304 4.19092C11.694 4.13387 11.5775 4.03772 11.4955 3.91461C11.4135 3.7915 11.3698 3.64693 11.3698 3.49902C11.3719 3.29903 11.453 3.10795 11.5953 2.96747C11.7377 2.82698 11.9298 2.74848 12.1298 2.74902Z" fill="#7F7989"/>
</svg>
