<svg width="23" height="23" viewBox="0 0 23 23" fill="none" xmlns="http://www.w3.org/2000/svg">
<path d="M14.8885 11.8571L10.6459 7.61445C10.257 7.22554 9.62059 7.22554 9.23168 7.61445L0.746398 16.0997C0.357489 16.4886 0.357489 17.125 0.746398 17.5139L4.98904 21.7566C5.37795 22.1455 6.01434 22.1455 6.40325 21.7566L14.8885 13.2713C15.2774 12.8824 15.2774 12.246 14.8885 11.8571ZM8.52457 13.9784C7.74675 13.2006 7.74675 11.9278 8.52457 11.15C9.30239 10.3722 10.5752 10.3722 11.353 11.15C12.1308 11.9278 12.1308 13.2006 11.353 13.9784C10.5752 14.7562 9.30239 14.7562 8.52457 13.9784ZM11.353 4.14962V6.14366C12.6329 6.15073 13.9127 6.63864 14.8885 7.61445C15.8643 8.59025 16.3522 9.87012 16.3593 11.15L18.3534 11.15C18.3534 9.35393 17.6675 7.56495 16.3027 6.20023C14.938 4.83552 13.1491 4.14962 11.353 4.14962ZM19.1312 3.3718C16.9816 1.2222 14.1673 0.147398 11.353 0.147398L11.353 2.14144C13.6511 2.14851 15.9563 3.02532 17.717 4.78602C19.4777 6.54671 20.3545 8.85188 20.3474 11.15H22.3414C22.3556 8.3357 21.2808 5.52141 19.1312 3.3718Z" fill="#7F7989"/>
</svg>
