<svg width="24" height="24" viewBox="0 0 24 24" fill="none" xmlns="http://www.w3.org/2000/svg">
<path d="M12 2C10.6868 2 9.38642 2.25866 8.17317 2.76121C6.95991 3.26375 5.85752 4.00035 4.92893 4.92893C3.05357 6.8043 2 9.34784 2 12C2 14.6522 3.05356 17.1957 4.92893 19.0711C5.85751 19.9997 6.9599 20.7363 8.17316 21.2388C9.38641 21.7413 10.6868 22 12 22C14.6522 22 17.1957 20.9464 19.0711 19.0711C20.9464 17.1957 22 14.6522 22 12C22 10.84 21.79 9.69001 21.39 8.61001L19.79 10.21C19.93 10.8 20 11.4 20 12C20 14.1217 19.1571 16.1566 17.6568 17.6569C16.1566 19.1572 14.1217 20 12 20C9.87826 20 7.84343 19.1571 6.34314 17.6569C4.84285 16.1566 4 14.1217 4 12C4 9.87827 4.84285 7.84344 6.34314 6.34315C7.84344 4.84286 9.87827 4 12 4C12.6 4 13.2 4.07 13.79 4.21L15.4 2.6C14.31 2.21 13.16 2 12 2ZM19 2.00001L15 6L15 7.5L12.45 10.05C12.3 10 12.15 10 12 10C11.4696 10 10.9609 10.2107 10.5858 10.5858C10.2107 10.9609 10 11.4696 10 12C10 12.5304 10.2107 13.0391 10.5858 13.4142C10.9609 13.7893 11.4696 14 12 14C12.5304 14 13.0391 13.7893 13.4142 13.4142C13.7893 13.0391 14 12.5304 14 12C14 11.85 14 11.7 13.95 11.55L16.5 9.00001L18 9.00001L22 5.00001L19 5.00001L19 2.00001ZM12 6C10.4087 6 8.88258 6.63214 7.75736 7.75736C6.63214 8.88258 6 10.4087 6 12C6 13.5913 6.63214 15.1174 7.75735 16.2426C8.88257 17.3679 10.4087 18 12 18C13.5913 18 15.1174 17.3679 16.2426 16.2426C17.3679 15.1174 18 13.5913 18 12L16 12C16 13.0609 15.5786 14.0783 14.8284 14.8284C14.0783 15.5786 13.0609 16 12 16C10.9391 16 9.92171 15.5786 9.17157 14.8284C8.42142 14.0783 8 13.0609 8 12C8 10.9391 8.42142 9.92172 9.17157 9.17158C9.92172 8.42143 10.9391 8 12 8L12 6Z" fill="#7F7989"/>
<rect x="2" y="3.41406" width="2" height="26" transform="rotate(-45 2 3.41406)" fill="#7F7989"/>
</svg>
