<svg width="24" height="24" viewBox="0 0 24 24" fill="none" xmlns="http://www.w3.org/2000/svg">
<path fill-rule="evenodd" clip-rule="evenodd" d="M12.179 5.73999C13.8753 5.73333 15.5509 6.11246 17.0791 6.84875C18.6073 7.58505 19.9481 8.65922 21 9.98999C20.5964 7.94712 19.4963 6.10761 17.8875 4.78552C16.2787 3.46344 14.2609 2.74072 12.1785 2.74072C10.0961 2.74072 8.07834 3.46344 6.46952 4.78552C4.86069 6.10761 3.76058 7.94712 3.357 9.98999C4.40918 8.65925 5.75013 7.58516 7.27848 6.84888C8.80682 6.1126 10.4825 5.7334 12.179 5.73999ZM12.179 17.5C10.4825 17.5066 8.80682 17.1274 7.27848 16.3911C5.75013 15.6548 4.40918 14.5807 3.357 13.25C3.76058 15.2929 4.86069 17.1324 6.46952 18.4545C8.07834 19.7766 10.0961 20.4993 12.1785 20.4993C14.2609 20.4993 16.2787 19.7766 17.8875 18.4545C19.4963 17.1324 20.5964 15.2929 21 13.25C19.9481 14.5808 18.6073 15.6549 17.0791 16.3912C15.5509 17.1275 13.8753 17.5067 12.179 17.5ZM20.986 2.5C20.988 2.79709 20.9017 3.08807 20.7381 3.33606C20.5745 3.58405 20.3409 3.77788 20.067 3.89294C19.7931 4.00801 19.4912 4.03917 19.1996 3.98242C18.9079 3.92568 18.6397 3.78359 18.4289 3.57422C18.2181 3.36484 18.0743 3.09752 18.0156 2.80627C17.9569 2.51503 17.986 2.21303 18.0992 1.93835C18.2125 1.66368 18.4047 1.42882 18.6516 1.26355C18.8985 1.09828 19.1889 1.01002 19.486 1.01001C19.8821 1.01 20.2621 1.16666 20.5432 1.4458C20.8242 1.72495 20.9834 2.10391 20.986 2.5ZM6.986 22C6.98284 22.3917 6.86381 22.7737 6.64389 23.0979C6.42398 23.4221 6.11301 23.6738 5.75022 23.8215C5.38742 23.9692 4.98903 24.0062 4.60523 23.9279C4.22143 23.8495 3.86941 23.6593 3.59354 23.3812C3.31767 23.1031 3.13029 22.7496 3.05503 22.3652C2.97976 21.9808 3.01997 21.5827 3.1706 21.2211C3.32122 20.8595 3.57552 20.5506 3.90143 20.3333C4.22734 20.1159 4.6103 20 5.00202 20C5.52956 20.0037 6.03415 20.2162 6.4054 20.5911C6.77665 20.9659 6.98434 21.4724 6.98301 22H6.986ZM5 4C4.99901 4.19877 4.93911 4.39278 4.82785 4.5575C4.7166 4.72221 4.55899 4.85027 4.37497 4.92542C4.19096 5.00057 3.9888 5.01948 3.79404 4.97974C3.59929 4.93999 3.42071 4.84327 3.28086 4.70203C3.14101 4.56078 3.04617 4.3813 3.00837 4.18616C2.97056 3.99102 2.99148 3.78909 3.06846 3.60583C3.14543 3.42258 3.27501 3.26622 3.44083 3.15662C3.60665 3.04701 3.80124 2.989 4 2.98999C4.26647 2.99158 4.52142 3.09885 4.7089 3.28821C4.89638 3.47756 5.00107 3.73354 5 4Z" fill="#7F7989"/>
</svg>
