<svg width="33" height="33" viewBox="0 0 33 33" fill="none" xmlns="http://www.w3.org/2000/svg">
<rect x="3.83331" y="4" width="25" height="25" rx="12.5" fill="white" stroke="#EA336A"/>
<g clip-path="url(#clip0)">
<g clip-path="url(#clip1)">
<path d="M14.2757 9.83337C13.5067 9.83337 12.8688 10.3672 12.6862 11.0886C12.6656 11.0886 12.6502 11.0834 12.6296 11.0834C11.7217 11.0834 10.9835 11.8308 10.9835 12.75C10.9835 12.875 10.9989 12.9974 11.0272 13.1146C10.2762 13.4271 9.74895 14.1719 9.74895 15.0417C9.74895 15.3698 9.83125 15.6745 9.96243 15.9506C9.34514 16.3099 8.9259 16.9766 8.9259 17.75C8.9259 18.6172 9.45059 19.362 10.1965 19.6745C10.1733 19.7943 10.1605 19.9167 10.1605 20.0417C10.1605 21.0782 10.9887 21.9167 12.0123 21.9167C12.1178 21.9167 12.2207 21.9037 12.321 21.8855C12.5679 22.6276 13.252 23.1667 14.0699 23.1667C15.0936 23.1667 15.9218 22.3282 15.9218 21.2917V11.5C15.9218 10.5808 15.1836 9.83337 14.2757 9.83337ZM23.7407 17.75C23.7407 16.9766 23.3215 16.3099 22.7042 15.9506C22.8379 15.6745 22.9177 15.3698 22.9177 15.0417C22.9177 14.1719 22.3904 13.4271 21.6394 13.1146C21.6651 12.9974 21.6831 12.875 21.6831 12.75C21.6831 11.8308 20.9449 11.0834 20.037 11.0834C20.0164 11.0834 19.9984 11.0886 19.9804 11.0886C19.7978 10.3672 19.16 9.83337 18.3909 9.83337C17.483 9.83337 16.7448 10.5782 16.7448 11.5V21.2917C16.7448 22.3282 17.573 23.1667 18.5967 23.1667C19.4146 23.1667 20.0987 22.6276 20.3457 21.8855C20.446 21.9037 20.5488 21.9167 20.6543 21.9167C21.678 21.9167 22.5062 21.0782 22.5062 20.0417C22.5062 19.9167 22.4933 19.7943 22.4701 19.6745C23.216 19.362 23.7407 18.6172 23.7407 17.75Z" fill="#EA336A"/>
</g>
</g>
<defs>
<clipPath id="clip0">
<rect width="16" height="16" fill="white" transform="translate(8.33331 8.5)"/>
</clipPath>
<clipPath id="clip1">
<rect width="14.8148" height="13.3333" fill="white" transform="translate(8.9259 9.83337)"/>
</clipPath>
</defs>
</svg>
