<svg width="25" height="24" viewBox="0 0 25 24" fill="none" xmlns="http://www.w3.org/2000/svg">
<g clip-path="url(#clip0)">
<path d="M9.41358 2C8.26003 2 7.30324 2.80078 7.02932 3.88281C6.99845 3.88281 6.97531 3.875 6.94444 3.875C5.58256 3.875 4.47531 4.99609 4.47531 6.375C4.47531 6.5625 4.49845 6.74609 4.54089 6.92188C3.41435 7.39062 2.62345 8.50781 2.62345 9.8125C2.62345 10.3047 2.74691 10.7617 2.94367 11.1758C2.01774 11.7148 1.38889 12.7148 1.38889 13.875C1.38889 15.1758 2.17592 16.293 3.29475 16.7617C3.26003 16.9414 3.24074 17.125 3.24074 17.3125C3.24074 18.8672 4.48302 20.125 6.01852 20.125C6.17669 20.125 6.33102 20.1055 6.48148 20.0781C6.85185 21.1914 7.87808 22 9.10493 22C10.6404 22 11.8827 20.7422 11.8827 19.1875V4.5C11.8827 3.12109 10.7755 2 9.41358 2ZM23.6111 13.875C23.6111 12.7148 22.9823 11.7148 22.0563 11.1758C22.2569 10.7617 22.3765 10.3047 22.3765 9.8125C22.3765 8.50781 21.5856 7.39062 20.4591 6.92188C20.4977 6.74609 20.5247 6.5625 20.5247 6.375C20.5247 4.99609 19.4174 3.875 18.0556 3.875C18.0247 3.875 17.9977 3.88281 17.9707 3.88281C17.6968 2.80078 16.74 2 15.5864 2C14.2245 2 13.1173 3.11719 13.1173 4.5V19.1875C13.1173 20.7422 14.3596 22 15.8951 22C17.1219 22 18.1481 21.1914 18.5185 20.0781C18.669 20.1055 18.8233 20.125 18.9815 20.125C20.517 20.125 21.7593 18.8672 21.7593 17.3125C21.7593 17.125 21.74 16.9414 21.7052 16.7617C22.8241 16.293 23.6111 15.1758 23.6111 13.875Z" fill="#EA336A"/>
</g>
<defs>
<clipPath id="clip0">
<rect width="22.2222" height="20" fill="white" transform="translate(1.38889 2)"/>
</clipPath>
</defs>
</svg>
