<svg width="33" height="32" viewBox="0 0 33 32" fill="none" xmlns="http://www.w3.org/2000/svg">
<rect x="4.36668" y="3.5" width="25" height="25" rx="12.5" fill="white" stroke="#F98B0A"/>
<g clip-path="url(#clip0)">
<path d="M21.5334 9.33337H12.8667C12.0627 9.33337 10.8667 9.86604 10.8667 11.3334V20.6667C10.8667 22.134 12.0627 22.6667 12.8667 22.6667H22.8667V21.3334H12.8747C12.5667 21.3254 12.2 21.204 12.2 20.6667C12.2 20.5994 12.206 20.5394 12.216 20.4847C12.2907 20.1007 12.6054 20.0067 12.8747 20H22.8667V10.6667C22.8667 10.3131 22.7262 9.97395 22.4762 9.7239C22.2261 9.47385 21.887 9.33337 21.5334 9.33337ZM21.5334 15.3334L20.2 14.6667L18.8667 15.3334V10.6667H21.5334V15.3334Z" fill="#F98B0A"/>
</g>
<defs>
<clipPath id="clip0">
<rect width="16" height="16" fill="white" transform="translate(8.86668 8)"/>
</clipPath>
</defs>
</svg>
