<svg width="48" height="48" viewBox="0 0 48 48" fill="none" xmlns="http://www.w3.org/2000/svg">
<mask id="mask0_3303_468478" style="mask-type:alpha" maskUnits="userSpaceOnUse" x="10" y="7" width="26" height="35">
<path d="M32.3402 7.73315H16.5997L10.1318 14.0335V38.2304C10.1318 39.8839 11.4715 41.2445 13.146 41.2445H23.2529C23.0874 40.523 23 39.7717 23 39C23 33.4772 27.4772 29 33 29C33.8109 29 34.5993 29.0965 35.3543 29.2787V10.7473C35.3543 9.0937 34.0147 7.73315 32.3402 7.73315Z" fill="#C4C4C4"/>
</mask>
<g mask="url(#mask0_3303_468478)">
<path d="M26.625 33.5C26.625 33.9142 26.9608 34.25 27.375 34.25C27.7893 34.25 28.125 33.9142 28.125 33.5H26.625ZM31.0313 26.4688L30.513 25.9267L30.5129 25.9268L31.0313 26.4688ZM24 8.75004L23.9979 9.50004H24V8.75004ZM13.875 18.875H14.625L14.625 18.8729L13.875 18.875ZM16.9688 26.4688L17.4836 25.9234L17.4836 25.9234L16.9688 26.4688ZM19.875 33.5C19.875 33.9142 20.2108 34.25 20.625 34.25C21.0393 34.25 21.375 33.9142 21.375 33.5H19.875ZM21.75 39.5C21.3358 39.5 21 39.8358 21 40.25C21 40.6643 21.3358 41 21.75 41V39.5ZM26.25 41C26.6643 41 27 40.6643 27 40.25C27 39.8358 26.6643 39.5 26.25 39.5V41ZM20.625 36.125C20.2108 36.125 19.875 36.4608 19.875 36.875C19.875 37.2893 20.2108 37.625 20.625 37.625V36.125ZM27.375 37.625C27.7893 37.625 28.125 37.2893 28.125 36.875C28.125 36.4608 27.7893 36.125 27.375 36.125V37.625ZM23.25 33.5C23.25 33.9143 23.5858 34.25 24 34.25C24.4143 34.25 24.75 33.9143 24.75 33.5H23.25ZM27.1195 23.9768C27.4519 23.7296 27.5209 23.2598 27.2737 22.9274C27.0265 22.5951 26.5566 22.526 26.2243 22.7733L27.1195 23.9768ZM21.7758 22.7733C21.4434 22.526 20.9736 22.5951 20.7264 22.9274C20.4792 23.2598 20.5482 23.7296 20.8805 23.9768L21.7758 22.7733ZM28.125 33.5V31.8125H26.625V33.5H28.125ZM28.125 31.8125C28.125 31.0558 28.5443 30.2335 29.2471 29.3633C29.9425 28.5023 30.8073 27.7209 31.5497 27.0108L30.5129 25.9268C29.8167 26.5927 28.8533 27.4636 28.0802 28.4208C27.3146 29.3686 26.625 30.5302 26.625 31.8125H28.125ZM31.5495 27.0109C33.7382 24.9186 34.875 22.1122 34.875 18.875H33.375C33.375 21.7396 32.38 24.1419 30.513 25.9267L31.5495 27.0109ZM34.875 18.875C34.875 12.8367 30.0592 8.00004 24 8.00004V9.50004C29.2289 9.50004 33.375 13.6633 33.375 18.875H34.875ZM24.0021 8.00004C22.5726 7.99605 21.1564 8.27468 19.8349 8.81989L20.407 10.2065C21.5458 9.73669 22.7661 9.4966 23.9979 9.50004L24.0021 8.00004ZM19.8349 8.81989C18.5135 9.3651 17.3128 10.1661 16.302 11.177L17.3626 12.2376C18.2337 11.3666 19.2683 10.6763 20.407 10.2065L19.8349 8.81989ZM16.302 11.177C15.2912 12.1878 14.4901 13.3885 13.9449 14.7099L15.3315 15.282C15.8013 14.1433 16.4916 13.1087 17.3626 12.2376L16.302 11.177ZM13.9449 14.7099C13.3997 16.0314 13.1211 17.4476 13.125 18.8771L14.625 18.8729C14.6216 17.6411 14.8617 16.4208 15.3315 15.282L13.9449 14.7099ZM13.125 18.875C13.125 21.9988 14.3048 24.9855 16.454 27.0142L17.4836 25.9234C15.6686 24.2101 14.625 21.6351 14.625 18.875H13.125ZM16.454 27.0142C17.1904 27.7094 18.0553 28.4863 18.7502 29.3461C19.4527 30.2152 19.875 31.0442 19.875 31.8125H21.375C21.375 30.5207 20.6847 29.3532 19.9168 28.4032C19.1413 27.4437 18.178 26.5789 17.4836 25.9234L16.454 27.0142ZM19.875 31.8125V33.5H21.375V31.8125H19.875ZM21.75 41H26.25V39.5H21.75V41ZM20.625 37.625H27.375V36.125H20.625V37.625ZM24.75 33.5V24.5H23.25V33.5H24.75ZM26.6719 23.375C26.2243 22.7733 26.2244 22.7732 26.2245 22.7731C26.2245 22.7731 26.2246 22.773 26.2247 22.773C26.2248 22.7729 26.2248 22.7729 26.2249 22.7728C26.225 22.7727 26.225 22.7727 26.2249 22.7728C26.2248 22.7729 26.2243 22.7733 26.2235 22.7739C26.2218 22.7751 26.2187 22.7774 26.2143 22.7806C26.2055 22.7869 26.1914 22.7971 26.1724 22.8105C26.1345 22.8372 26.0773 22.8767 26.0045 22.9247C25.8583 23.0212 25.6526 23.1495 25.4156 23.277C24.9099 23.5489 24.3821 23.75 24 23.75V25.25C24.7775 25.25 25.5856 24.8887 26.126 24.5981C26.4119 24.4443 26.6568 24.2914 26.8304 24.1769C26.9176 24.1194 26.9876 24.071 27.0369 24.0363C27.0616 24.0189 27.0811 24.0049 27.095 23.9948C27.102 23.9897 27.1075 23.9857 27.1116 23.9827C27.1137 23.9812 27.1154 23.9799 27.1167 23.9789C27.1173 23.9784 27.1179 23.978 27.1184 23.9777C27.1186 23.9775 27.1188 23.9773 27.119 23.9772C27.1191 23.9771 27.1193 23.977 27.1193 23.977C27.1194 23.9769 27.1195 23.9768 26.6719 23.375ZM24 23.75C23.618 23.75 23.0902 23.5489 22.5845 23.277C22.3474 23.1495 22.1418 23.0212 21.9955 22.9247C21.9228 22.8767 21.8656 22.8372 21.8277 22.8105C21.8087 22.7971 21.7946 22.7869 21.7858 22.7806C21.7814 22.7774 21.7783 22.7751 21.7766 22.7739C21.7758 22.7733 21.7753 22.7729 21.7751 22.7728C21.7751 22.7727 21.7751 22.7727 21.7752 22.7728C21.7752 22.7729 21.7753 22.7729 21.7754 22.773C21.7755 22.773 21.7756 22.7731 21.7756 22.7731C21.7757 22.7732 21.7758 22.7733 21.3282 23.375C20.8805 23.9768 20.8807 23.9769 20.8808 23.977C20.8808 23.977 20.8809 23.9771 20.881 23.9772C20.8812 23.9773 20.8814 23.9775 20.8817 23.9777C20.8822 23.978 20.8827 23.9784 20.8834 23.9789C20.8847 23.9799 20.8864 23.9812 20.8885 23.9827C20.8926 23.9857 20.8981 23.9897 20.9051 23.9948C20.919 24.0049 20.9385 24.0189 20.9632 24.0363C21.0124 24.071 21.0825 24.1194 21.1697 24.1769C21.3432 24.2914 21.5881 24.4443 21.8741 24.5981C22.4145 24.8887 23.2226 25.25 24 25.25V23.75Z" fill="url(#paint0_linear_3303_468478)"/>
</g>
<path d="M29.1904 37.0714C29.0641 37.0714 28.943 37.1216 28.8537 37.2109C28.7644 37.3002 28.7142 37.4213 28.7142 37.5476C28.7142 37.6739 28.7644 37.795 28.8537 37.8843C28.943 37.9736 29.0641 38.0238 29.1904 38.0238H36.8095C36.9358 38.0238 37.0569 37.9736 37.1462 37.8843C37.2355 37.795 37.2857 37.6739 37.2857 37.5476C37.2857 37.4213 37.2355 37.3002 37.1462 37.2109C37.0569 37.1216 36.9358 37.0714 36.8095 37.0714H29.1904Z" fill="url(#paint1_linear_3303_468478)"/>
<path d="M30.1429 40.4524C30.1429 40.3261 30.1931 40.205 30.2824 40.1157C30.3717 40.0264 30.4928 39.9762 30.6191 39.9762H35.381C35.5073 39.9762 35.6285 40.0264 35.7178 40.1157C35.8071 40.205 35.8572 40.3261 35.8572 40.4524C35.8572 40.5787 35.8071 40.6998 35.7178 40.7891C35.6285 40.8784 35.5073 40.9286 35.381 40.9286H30.6191C30.4928 40.9286 30.3717 40.8784 30.2824 40.7891C30.1931 40.6998 30.1429 40.5787 30.1429 40.4524Z" fill="url(#paint2_linear_3303_468478)"/>
<rect x="25.75" y="31.75" width="14.5" height="14.5" rx="7.25" stroke="url(#paint3_linear_3303_468478)" stroke-width="1.5"/>
<defs>
<linearGradient id="paint0_linear_3303_468478" x1="34.125" y1="26.6121" x2="13.875" y2="26.6121" gradientUnits="userSpaceOnUse">
<stop stop-color="#6D5E92"/>
<stop offset="1" stop-color="#272C41"/>
</linearGradient>
<linearGradient id="paint1_linear_3303_468478" x1="37.2857" y1="37.6115" x2="28.7142" y2="37.6115" gradientUnits="userSpaceOnUse">
<stop stop-color="#6D5E92"/>
<stop offset="1" stop-color="#272C41"/>
</linearGradient>
<linearGradient id="paint2_linear_3303_468478" x1="35.8572" y1="40.5162" x2="30.1429" y2="40.5162" gradientUnits="userSpaceOnUse">
<stop stop-color="#6D5E92"/>
<stop offset="1" stop-color="#272C41"/>
</linearGradient>
<linearGradient id="paint3_linear_3303_468478" x1="41" y1="40.0728" x2="25" y2="40.0728" gradientUnits="userSpaceOnUse">
<stop stop-color="#6D5E92"/>
<stop offset="1" stop-color="#272C41"/>
</linearGradient>
</defs>
</svg>
