<svg width="33" height="32" viewBox="0 0 33 32" fill="none" xmlns="http://www.w3.org/2000/svg">
<rect x="3.90002" y="3.5" width="25" height="25" rx="12.5" fill="white" stroke="#13BBB1"/>
<path d="M16.3934 9.33337C12.7134 9.33337 9.73337 12.32 9.73337 16C9.73337 19.68 12.7134 22.6667 16.3934 22.6667C20.08 22.6667 23.0667 19.68 23.0667 16C23.0667 12.32 20.08 9.33337 16.3934 9.33337ZM21.0134 13.3334H19.0467C18.8334 12.5 18.5267 11.7 18.1267 10.96C19.3534 11.38 20.3734 12.2334 21.0134 13.3334ZM16.4 10.6934C16.9534 11.4934 17.3867 12.38 17.6734 13.3334H15.1267C15.4134 12.38 15.8467 11.4934 16.4 10.6934ZM11.24 17.3334C11.1334 16.9067 11.0667 16.46 11.0667 16C11.0667 15.54 11.1334 15.0934 11.24 14.6667H13.4934C13.44 15.1067 13.4 15.5467 13.4 16C13.4 16.4534 13.44 16.8934 13.4934 17.3334H11.24ZM11.7867 18.6667H13.7534C13.9667 19.5 14.2734 20.3 14.6734 21.04C13.4467 20.62 12.4267 19.7734 11.7867 18.6667ZM13.7534 13.3334H11.7867C12.4267 12.2267 13.4467 11.38 14.6734 10.96C14.2734 11.7 13.9667 12.5 13.7534 13.3334ZM16.4 21.3067C15.8467 20.5067 15.4134 19.62 15.1267 18.6667H17.6734C17.3867 19.62 16.9534 20.5067 16.4 21.3067ZM17.96 17.3334H14.84C14.78 16.8934 14.7334 16.4534 14.7334 16C14.7334 15.5467 14.78 15.1 14.84 14.6667H17.96C18.02 15.1 18.0667 15.5467 18.0667 16C18.0667 16.4534 18.02 16.8934 17.96 17.3334ZM18.1267 21.04C18.5267 20.3 18.8334 19.5 19.0467 18.6667H21.0134C20.3734 19.7667 19.3534 20.62 18.1267 21.04ZM19.3067 17.3334C19.36 16.8934 19.4 16.4534 19.4 16C19.4 15.5467 19.36 15.1067 19.3067 14.6667H21.56C21.6667 15.0934 21.7334 15.54 21.7334 16C21.7334 16.46 21.6667 16.9067 21.56 17.3334H19.3067Z" fill="#13BBB1"/>
</svg>
