<svg width="25" height="24" viewBox="0 0 25 24" fill="none" xmlns="http://www.w3.org/2000/svg">
<path d="M12.49 2C6.97 2 2.5 6.48 2.5 12C2.5 17.52 6.97 22 12.49 22C18.02 22 22.5 17.52 22.5 12C22.5 6.48 18.02 2 12.49 2ZM19.42 8H16.47C16.15 6.75 15.69 5.55 15.09 4.44C16.93 5.07 18.46 6.35 19.42 8ZM12.5 4.04C13.33 5.24 13.98 6.57 14.41 8H10.59C11.02 6.57 11.67 5.24 12.5 4.04ZM4.76 14C4.6 13.36 4.5 12.69 4.5 12C4.5 11.31 4.6 10.64 4.76 10H8.14C8.06 10.66 8 11.32 8 12C8 12.68 8.06 13.34 8.14 14H4.76ZM5.58 16H8.53C8.85 17.25 9.31 18.45 9.91 19.56C8.07 18.93 6.54 17.66 5.58 16ZM8.53 8H5.58C6.54 6.34 8.07 5.07 9.91 4.44C9.31 5.55 8.85 6.75 8.53 8ZM12.5 19.96C11.67 18.76 11.02 17.43 10.59 16H14.41C13.98 17.43 13.33 18.76 12.5 19.96ZM14.84 14H10.16C10.07 13.34 10 12.68 10 12C10 11.32 10.07 10.65 10.16 10H14.84C14.93 10.65 15 11.32 15 12C15 12.68 14.93 13.34 14.84 14ZM15.09 19.56C15.69 18.45 16.15 17.25 16.47 16H19.42C18.46 17.65 16.93 18.93 15.09 19.56ZM16.86 14C16.94 13.34 17 12.68 17 12C17 11.32 16.94 10.66 16.86 10H20.24C20.4 10.64 20.5 11.31 20.5 12C20.5 12.69 20.4 13.36 20.24 14H16.86Z" fill="#13BBB1"/>
</svg>
