<svg width="48" height="48" viewBox="0 0 48 48" fill="none" xmlns="http://www.w3.org/2000/svg">
<path fill-rule="evenodd" clip-rule="evenodd" d="M15.8497 13.3247V7.40796H17.3497V14.8247H10.1318V13.3247H15.8497Z" fill="url(#paint0_linear_2114_335409)"/>
<path fill-rule="evenodd" clip-rule="evenodd" d="M16.2948 6.98315L9.38184 13.7171V38.2304C9.38184 40.2948 11.0539 41.9945 13.146 41.9945H23.4561C23.304 41.5094 23.1879 41.0083 23.1109 40.4945H13.146C11.8891 40.4945 10.8818 39.4731 10.8818 38.2304V14.35L16.9046 8.48315H32.3402C33.5971 8.48315 34.6043 9.50452 34.6043 10.7473V29.128C35.1185 29.2109 35.6195 29.333 36.1043 29.4912V10.7473C36.1043 8.68288 34.4323 6.98315 32.3402 6.98315H16.2948Z" fill="url(#paint1_linear_2114_335409)"/>
<path d="M29.1901 37.0715C29.0638 37.0715 28.9426 37.1217 28.8533 37.211C28.764 37.3003 28.7139 37.4214 28.7139 37.5477C28.7139 37.674 28.764 37.7951 28.8533 37.8844C28.9426 37.9737 29.0638 38.0239 29.1901 38.0239H36.8091C36.9354 38.0239 37.0565 37.9737 37.1458 37.8844C37.2351 37.7951 37.2853 37.674 37.2853 37.5477C37.2853 37.4214 37.2351 37.3003 37.1458 37.211C37.0565 37.1217 36.9354 37.0715 36.8091 37.0715H29.1901Z" fill="url(#paint2_linear_2114_335409)"/>
<path d="M30.1426 40.4525C30.1426 40.3262 30.1927 40.2051 30.2821 40.1158C30.3714 40.0265 30.4925 39.9763 30.6188 39.9763H35.3807C35.507 39.9763 35.6281 40.0265 35.7174 40.1158C35.8067 40.2051 35.8569 40.3262 35.8569 40.4525C35.8569 40.5788 35.8067 40.6999 35.7174 40.7892C35.6281 40.8785 35.507 40.9287 35.3807 40.9287H30.6188C30.4925 40.9287 30.3714 40.8785 30.2821 40.7892C30.1927 40.6999 30.1426 40.5788 30.1426 40.4525Z" fill="url(#paint3_linear_2114_335409)"/>
<path d="M16.75 19.5C16.3358 19.5 16 19.8358 16 20.25C16 20.6642 16.3358 21 16.75 21H30.25C30.6642 21 31 20.6642 31 20.25C31 19.8358 30.6642 19.5 30.25 19.5H16.75Z" fill="url(#paint4_linear_2114_335409)"/>
<path d="M16.75 27.5C16.3358 27.5 16 27.8358 16 28.25C16 28.6642 16.3358 29 16.75 29H30.25C30.6642 29 31 28.6642 31 28.25C31 27.8358 30.6642 27.5 30.25 27.5H16.75Z" fill="url(#paint5_linear_2114_335409)"/>
<path d="M16 24.25C16 23.8358 16.3358 23.5 16.75 23.5H27.25C27.6642 23.5 28 23.8358 28 24.25C28 24.6642 27.6642 25 27.25 25H16.75C16.3358 25 16 24.6642 16 24.25Z" fill="url(#paint6_linear_2114_335409)"/>
<path d="M16.75 31.5C16.3358 31.5 16 31.8358 16 32.25C16 32.6642 16.3358 33 16.75 33H22.25C22.6642 33 23 32.6642 23 32.25C23 31.8358 22.6642 31.5 22.25 31.5H16.75Z" fill="url(#paint7_linear_2114_335409)"/>
<path fill-rule="evenodd" clip-rule="evenodd" d="M33 45.5C36.5899 45.5 39.5 42.5899 39.5 39C39.5 35.4101 36.5899 32.5 33 32.5C29.4101 32.5 26.5 35.4101 26.5 39C26.5 42.5899 29.4101 45.5 33 45.5ZM33 47C37.4183 47 41 43.4183 41 39C41 34.5817 37.4183 31 33 31C28.5817 31 25 34.5817 25 39C25 43.4183 28.5817 47 33 47Z" fill="url(#paint8_linear_2114_335409)"/>
<defs>
<linearGradient id="paint0_linear_2114_335409" x1="41" y1="29.6747" x2="9.38184" y2="29.6747" gradientUnits="userSpaceOnUse">
<stop stop-color="#6D5E92"/>
<stop offset="1" stop-color="#272C41"/>
</linearGradient>
<linearGradient id="paint1_linear_2114_335409" x1="41" y1="29.6747" x2="9.38184" y2="29.6747" gradientUnits="userSpaceOnUse">
<stop stop-color="#6D5E92"/>
<stop offset="1" stop-color="#272C41"/>
</linearGradient>
<linearGradient id="paint2_linear_2114_335409" x1="41" y1="29.6747" x2="9.38184" y2="29.6747" gradientUnits="userSpaceOnUse">
<stop stop-color="#6D5E92"/>
<stop offset="1" stop-color="#272C41"/>
</linearGradient>
<linearGradient id="paint3_linear_2114_335409" x1="41" y1="29.6747" x2="9.38184" y2="29.6747" gradientUnits="userSpaceOnUse">
<stop stop-color="#6D5E92"/>
<stop offset="1" stop-color="#272C41"/>
</linearGradient>
<linearGradient id="paint4_linear_2114_335409" x1="41" y1="29.6747" x2="9.38184" y2="29.6747" gradientUnits="userSpaceOnUse">
<stop stop-color="#6D5E92"/>
<stop offset="1" stop-color="#272C41"/>
</linearGradient>
<linearGradient id="paint5_linear_2114_335409" x1="41" y1="29.6747" x2="9.38184" y2="29.6747" gradientUnits="userSpaceOnUse">
<stop stop-color="#6D5E92"/>
<stop offset="1" stop-color="#272C41"/>
</linearGradient>
<linearGradient id="paint6_linear_2114_335409" x1="41" y1="29.6747" x2="9.38184" y2="29.6747" gradientUnits="userSpaceOnUse">
<stop stop-color="#6D5E92"/>
<stop offset="1" stop-color="#272C41"/>
</linearGradient>
<linearGradient id="paint7_linear_2114_335409" x1="41" y1="29.6747" x2="9.38184" y2="29.6747" gradientUnits="userSpaceOnUse">
<stop stop-color="#6D5E92"/>
<stop offset="1" stop-color="#272C41"/>
</linearGradient>
<linearGradient id="paint8_linear_2114_335409" x1="41" y1="29.6747" x2="9.38184" y2="29.6747" gradientUnits="userSpaceOnUse">
<stop stop-color="#6D5E92"/>
<stop offset="1" stop-color="#272C41"/>
</linearGradient>
</defs>
</svg>
