<svg xmlns="http://www.w3.org/2000/svg" xmlns:xlink="http://www.w3.org/1999/xlink" width="24px" height="24px" viewBox="0 -1 24 24" version="1.1">
<path style=" stroke:none;fill-rule:nonzero;fill:#7F7989;fill-opacity:1;" d="M 14.136719 8.96875 L 18.699219 8.96875 C 18.976562 8.96875 19.199219 8.757812 19.199219 8.496094 L 19.199219 4.15625 C 19.199219 3.890625 18.976562 3.679688 18.699219 3.679688 L 14.136719 3.679688 C 13.859375 3.679688 13.636719 3.894531 13.636719 4.15625 L 13.636719 5.578125 L 11.503906 5.578125 C 11.066406 5.578125 10.714844 5.910156 10.714844 6.324219 L 10.714844 10.316406 L 8.699219 10.316406 C 8.367188 9.375 7.433594 8.695312 6.332031 8.695312 C 4.957031 8.695312 3.839844 9.757812 3.839844 11.066406 C 3.839844 12.375 4.957031 13.4375 6.332031 13.4375 C 7.433594 13.4375 8.367188 12.753906 8.699219 11.8125 L 10.714844 11.8125 L 10.714844 15.804688 C 10.714844 16.21875 11.066406 16.554688 11.503906 16.554688 L 13.636719 16.554688 L 13.636719 17.925781 C 13.636719 18.1875 13.859375 18.402344 14.136719 18.402344 L 18.699219 18.402344 C 18.976562 18.402344 19.199219 18.1875 19.199219 17.925781 L 19.199219 13.585938 C 19.199219 13.324219 18.976562 13.113281 18.699219 13.113281 L 14.136719 13.113281 C 13.859375 13.113281 13.636719 13.324219 13.636719 13.585938 L 13.636719 15.058594 L 12.289062 15.058594 L 12.289062 7.074219 L 13.636719 7.074219 L 13.636719 8.496094 C 13.636719 8.757812 13.859375 8.96875 14.136719 8.96875 Z M 14.136719 8.96875 "/>
</svg>
