<svg width="18" height="22" viewBox="0 0 18 22" fill="none" xmlns="http://www.w3.org/2000/svg">
<path d="M18 10C18 15.55 14.16 20.74 9 22C3.84 20.74 0 15.55 0 10V4L9 0L18 4V10ZM9 20C12.75 19 16 14.54 16 10.22V5.3L9 2.18L2 5.3V10.22C2 14.54 5.25 19 9 20ZM11.8 10V8.5C11.8 7.1 10.4 6 9 6C7.6 6 6.2 7.1 6.2 8.5V10C5.6 10 5 10.6 5 11.2V14.7C5 15.4 5.6 16 6.2 16H11.7C12.4 16 13 15.4 13 14.8V11.3C13 10.6 12.4 10 11.8 10ZM10.5 10H7.5V8.5C7.5 7.7 8.2 7.2 9 7.2C9.8 7.2 10.5 7.7 10.5 8.5V10Z" fill="#7F7989"/>
</svg>
