<svg width="25" height="28" viewBox="0 0 25 28" fill="none" xmlns="http://www.w3.org/2000/svg">
<path fill-rule="evenodd" clip-rule="evenodd" d="M12.5 28C12.325 28 12.15 27.9558 12 27.8674L0.5 21.3586C0.19 21.1867 0 20.8575 0 20.5088V7.36842C0 7.01474 0.195 6.68561 0.51 6.51368L12.01 0.127719C12.16 0.0442105 12.33 0 12.5 0C12.67 0 12.84 0.0442105 12.99 0.127719L24.49 6.51368C24.805 6.68561 25 7.01474 25 7.36842V20.6316C25 20.9853 24.805 21.3144 24.49 21.4863L12.99 27.8723C12.845 27.9558 12.675 28 12.5 28ZM13.5 25.3326L22.025 20.5972L17.74 18.0232C16.68 19.3249 15.17 20.1796 13.5 20.4302V25.3326ZM11.5 25.3179V20.44C9.805 20.1993 8.275 19.3396 7.2 18.0182L2.975 20.494L11.5 25.3179ZM23 18.8779V9.06807L18.765 11.4653C19.07 12.2316 19.225 13.0421 19.225 13.8772C19.225 14.727 19.065 15.5474 18.75 16.3284L23 18.8779ZM2 18.7796L6.195 16.3186C5.88 15.5425 5.725 14.7221 5.725 13.8772C5.725 13.0323 5.885 12.2168 6.195 11.4456L2 9.06807V18.7796ZM13.5 7.3193C15.195 7.56491 16.715 8.43439 17.775 9.7607L21.985 7.37825L13.5 2.66737V7.3193ZM7.205 9.74597C8.28 8.42947 9.805 7.56491 11.5 7.3193V2.66737L3.02 7.37825L7.205 9.74597Z" fill="white"/>
</svg>
