<svg width="16" height="16" viewBox="0 0 16 16" fill="none" xmlns="http://www.w3.org/2000/svg">
<path d="M8 2C4.688 2 2 4.688 2 8C2 11.312 4.688 14 8 14C11.312 14 14 11.312 14 8C14 4.688 11.312 2 8 2ZM8 12.8C5.354 12.8 3.2 10.646 3.2 8C3.2 5.354 5.354 3.2 8 3.2C10.646 3.2 12.8 5.354 12.8 8C12.8 10.646 10.646 12.8 8 12.8Z" fill="#7F7989"/>
<path d="M10.196 6.69595C10.196 6.11354 9.9646 5.555 9.55278 5.14318C9.14096 4.73136 8.58241 4.5 8.00001 4.5C7.41761 4.5 6.85906 4.73136 6.44724 5.14318C6.03542 5.555 5.80406 6.11354 5.80406 6.69595C5.80406 6.81243 5.85033 6.92414 5.9327 7.0065C6.01506 7.08886 6.12677 7.13514 6.24325 7.13514C6.35973 7.13514 6.47144 7.08886 6.5538 7.0065C6.63617 6.92414 6.68244 6.81243 6.68244 6.69595C6.68244 6.43536 6.75971 6.18062 6.90449 5.96394C7.04927 5.74727 7.25504 5.5784 7.4958 5.47867C7.73655 5.37895 8.00147 5.35286 8.25705 5.4037C8.51264 5.45453 8.7474 5.58002 8.93167 5.76429C9.11593 5.94855 9.24142 6.18332 9.29226 6.4389C9.3431 6.69448 9.31701 6.9594 9.21728 7.20016C9.11756 7.44091 8.94868 7.64669 8.73201 7.79146C8.51534 7.93624 8.2606 8.01351 8.00001 8.01351C7.88353 8.01351 7.77182 8.05979 7.68945 8.14215C7.60709 8.22451 7.56082 8.33622 7.56082 8.4527V9.33108C7.56082 9.44756 7.60709 9.55927 7.68945 9.64163C7.77182 9.724 7.88353 9.77027 8.00001 9.77027C8.11649 9.77027 8.2282 9.724 8.31056 9.64163C8.39293 9.55927 8.4392 9.44756 8.4392 9.33108V8.84797C8.9352 8.74673 9.38099 8.47722 9.70112 8.08506C10.0213 7.6929 10.1961 7.20218 10.196 6.69595Z" fill="#7F7989"/>
<path d="M8 11C8.24255 11 8.43918 10.8034 8.43918 10.5608C8.43918 10.3183 8.24255 10.1216 8 10.1216C7.75744 10.1216 7.56081 10.3183 7.56081 10.5608C7.56081 10.8034 7.75744 11 8 11Z" fill="#7F7989"/>
</svg>
