<svg width="24" height="24" viewBox="0 0 24 24" fill="none" xmlns="http://www.w3.org/2000/svg">
<path d="M5 3C4.46957 3 3.96086 3.21071 3.58579 3.58579C3.21071 3.96086 3 4.46957 3 5V9C3 9.53043 2.78929 10.0391 2.41421 10.4142C2.03914 10.7893 1.53043 11 1 11H0V13H1C1.53043 13 2.03914 13.2107 2.41421 13.5858C2.78929 13.9609 3 14.4696 3 15V19C3 19.5304 3.21071 20.0391 3.58579 20.4142C3.96086 20.7893 4.46957 21 5 21H7V19H5V14C5 13.4696 4.78929 12.9609 4.41421 12.5858C4.03914 12.2107 3.53043 12 3 12C3.53043 12 4.03914 11.7893 4.41421 11.4142C4.78929 11.0391 5 10.5304 5 10V5H7V3H5ZM19 3C19.5304 3 20.0391 3.21071 20.4142 3.58579C20.7893 3.96086 21 4.46957 21 5V9C21 9.53043 21.2107 10.0391 21.5858 10.4142C21.9609 10.7893 22.4696 11 23 11H24V13H23C22.4696 13 21.9609 13.2107 21.5858 13.5858C21.2107 13.9609 21 14.4696 21 15V19C21 19.5304 20.7893 20.0391 20.4142 20.4142C20.0391 20.7893 19.5304 21 19 21H17V19H19V14C19 13.4696 19.2107 12.9609 19.5858 12.5858C19.9609 12.2107 20.4696 12 21 12C20.4696 12 19.9609 11.7893 19.5858 11.4142C19.2107 11.0391 19 10.5304 19 10V5H17V3H19Z" fill="#8C9DC5"/>
<path d="M12 16C11.0717 16 10.1815 15.6313 9.52513 14.9749C8.86875 14.3185 8.5 13.4283 8.5 12.5C8.5 11.5717 8.86875 10.6815 9.52513 10.0251C10.1815 9.36875 11.0717 9 12 9C12.9283 9 13.8185 9.36875 14.4749 10.0251C15.1313 10.6815 15.5 11.5717 15.5 12.5C15.5 13.4283 15.1313 14.3185 14.4749 14.9749C13.8185 15.6313 12.9283 16 12 16ZM15.515 9.695L16.225 8.985C16 8.73 15.775 8.5 15.52 8.28L14.81 9C14.035 8.37 13.06 8 12 8C10.8065 8 9.66193 8.47411 8.81802 9.31802C7.97411 10.1619 7.5 11.3065 7.5 12.5C7.5 13.6935 7.97411 14.8381 8.81802 15.682C9.66193 16.5259 10.8065 17 12 17C14.5 17 16.5 14.985 16.5 12.5C16.5 11.44 16.13 10.465 15.515 9.695ZM11.5 13H12.5V11H11.5V13ZM13.5 5.5H10.5V6.5H13.5V5.5Z" fill="#8C9DC5" stroke="#8C9DC5"/>
</svg>
