<svg width="48" height="48" viewBox="0 0 48 48" fill="none" xmlns="http://www.w3.org/2000/svg">
<path d="M24 34.3333C27.912 34.3333 31.0833 31.1621 31.0833 27.25C31.0833 23.3379 27.912 20.1667 24 20.1667C20.0879 20.1667 16.9166 23.3379 16.9166 27.25C16.9166 31.1621 20.0879 34.3333 24 34.3333Z" stroke="url(#paint0_linear_3303_468484)" stroke-width="1.5" stroke-linejoin="round"/>
<path d="M26.9166 17.6667H21.0833" stroke="url(#paint1_linear_3303_468484)" stroke-width="1.5" stroke-linecap="round" stroke-linejoin="round"/>
<path d="M29.8333 20.1667L28.5833 21.4167" stroke="#5E5380" stroke-width="1.5" stroke-linecap="round" stroke-linejoin="round"/>
<path d="M24 23.5V27.25" stroke="url(#paint2_linear_3303_468484)" stroke-width="1.5" stroke-linecap="round" stroke-linejoin="round"/>
<path d="M30.5 11.5C32.6667 11.1666 37 11.9 37 17.5C37 24.5 38.5 26 42.5 26" stroke="url(#paint3_linear_3303_468484)" stroke-width="1.5" stroke-linecap="round"/>
<path d="M18 11.5C15.8333 11.1666 11.5 11.9 11.5 17.5C11.5 24.5 10 26 6 26" stroke="url(#paint4_linear_3303_468484)" stroke-width="1.5" stroke-linecap="round"/>
<path d="M30.5 40.5C32.6667 40.8334 37 40.1 37 34.5C37 27.5 38.5 26 42.5 26" stroke="url(#paint5_linear_3303_468484)" stroke-width="1.5" stroke-linecap="round"/>
<path d="M18 40.5C15.8333 40.8334 11.5 40.1 11.5 34.5C11.5 27.5 10 26 6 26" stroke="url(#paint6_linear_3303_468484)" stroke-width="1.5" stroke-linecap="round"/>
<defs>
<linearGradient id="paint0_linear_3303_468484" x1="31.0833" y1="28.1999" x2="16.9166" y2="28.1999" gradientUnits="userSpaceOnUse">
<stop stop-color="#6D5E92"/>
<stop offset="1" stop-color="#272C41"/>
</linearGradient>
<linearGradient id="paint1_linear_3303_468484" x1="26.9166" y1="18.2337" x2="21.0833" y2="18.2337" gradientUnits="userSpaceOnUse">
<stop stop-color="#6D5E92"/>
<stop offset="1" stop-color="#272C41"/>
</linearGradient>
<linearGradient id="paint2_linear_3303_468484" x1="25" y1="25.6264" x2="24" y2="25.6264" gradientUnits="userSpaceOnUse">
<stop stop-color="#6D5E92"/>
<stop offset="1" stop-color="#272C41"/>
</linearGradient>
<linearGradient id="paint3_linear_3303_468484" x1="42.5" y1="19.6929" x2="30.5" y2="19.6929" gradientUnits="userSpaceOnUse">
<stop stop-color="#6D5E92"/>
<stop offset="1" stop-color="#272C41"/>
</linearGradient>
<linearGradient id="paint4_linear_3303_468484" x1="6" y1="19.6929" x2="18" y2="19.6929" gradientUnits="userSpaceOnUse">
<stop stop-color="#6D5E92"/>
<stop offset="1" stop-color="#272C41"/>
</linearGradient>
<linearGradient id="paint5_linear_3303_468484" x1="42.5" y1="32.3071" x2="30.5" y2="32.3071" gradientUnits="userSpaceOnUse">
<stop stop-color="#6D5E92"/>
<stop offset="1" stop-color="#272C41"/>
</linearGradient>
<linearGradient id="paint6_linear_3303_468484" x1="6" y1="32.3071" x2="18" y2="32.3071" gradientUnits="userSpaceOnUse">
<stop stop-color="#6D5E92"/>
<stop offset="1" stop-color="#272C41"/>
</linearGradient>
</defs>
</svg>
