<svg width="48" height="51" viewBox="0 0 48 51" fill="none" xmlns="http://www.w3.org/2000/svg">
<path d="M43.2945 8.04482C43.2785 7.96788 43.2409 7.89709 43.1861 7.84079C43.1313 7.78449 43.0616 7.74501 42.9851 7.727C37.887 6.48013 26.1101 10.9229 19.7229 17.3054C18.5846 18.4344 17.5466 19.6603 16.6207 20.9692C14.652 20.7911 12.6832 20.9411 11.007 21.6723C6.27351 23.7536 4.89633 29.1892 4.51195 31.5226C4.49113 31.6505 4.50002 31.7814 4.53795 31.9053C4.57587 32.0292 4.64181 32.1426 4.73065 32.2369C4.8195 32.3312 4.92885 32.4038 5.05025 32.449C5.17165 32.4942 5.30183 32.5108 5.4307 32.4976L13.031 31.6633C13.0363 32.2365 13.0707 32.8091 13.1341 33.3789C13.1738 33.7727 13.3495 34.1403 13.631 34.4186L16.5738 37.3614C16.8523 37.6431 17.2203 37.8188 17.6145 37.8583C18.1808 37.9214 18.7499 37.9558 19.3198 37.9614L18.4863 45.5551C18.4733 45.6838 18.4901 45.8138 18.5353 45.935C18.5805 46.0562 18.653 46.1654 18.7472 46.2541C18.8413 46.3428 18.9546 46.4087 19.0783 46.4466C19.2019 46.4846 19.3327 46.4936 19.4604 46.4729C21.7948 46.0979 27.2416 44.7208 29.3107 39.9883C30.042 38.3101 30.192 36.3517 30.0232 34.3923C31.3359 33.4673 32.5653 32.4293 33.6973 31.2901C40.1079 24.9151 44.5226 13.397 43.2945 8.04482ZM27.9991 23.0317C27.4392 22.4719 27.0578 21.7586 26.9033 20.982C26.7488 20.2055 26.828 19.4005 27.131 18.669C27.4339 17.9375 27.947 17.3122 28.6053 16.8723C29.2637 16.4324 30.0377 16.1976 30.8295 16.1976C31.6212 16.1976 32.3952 16.4324 33.0536 16.8723C33.7119 17.3122 34.225 17.9375 34.5279 18.669C34.8309 19.4005 34.9101 20.2055 34.7556 20.982C34.6011 21.7586 34.2197 22.4719 33.6598 23.0317C33.2884 23.4039 32.8472 23.6992 32.3615 23.9006C31.8759 24.1021 31.3552 24.2058 30.8295 24.2058C30.3037 24.2058 29.783 24.1021 29.2974 23.9006C28.8117 23.6992 28.3705 23.4039 27.9991 23.0317V23.0317Z" stroke="url(#paint0_linear_890_206775)" stroke-width="1.5" stroke-linecap="round" stroke-linejoin="round"/>
<path d="M10.2787 36C9.34417 36.1147 8.47471 36.5384 7.80844 37.2037C6.15656 38.8612 6 45 6 45C6 45 12.1425 44.8434 13.7953 43.1897C14.4634 42.5245 14.8877 41.6536 15 40.7175" stroke="#2E3149" stroke-width="1.5" stroke-linecap="round" stroke-linejoin="round"/>
<path d="M11.9876 3.90363C14.5376 5.85006 13.7483 9.47244 12.7162 10.8782C10.1662 13.4734 8.70914 11.8513 8.70914 10.3915C8.70914 9.7299 8.16272 8.76956 7.43416 8.60736C6.52346 8.28296 5.64919 8.38028 4.33778 6.82318C3.02638 5.26607 4.33778 3.4711 5.06634 2.93044C6.09846 2.33572 8.99853 1.62201 11.9876 3.90363Z" fill="#FFD077"/>
<path d="M16.2913 0.315308C17.6211 0.576398 17.8304 1.94712 17.7688 2.59984C17.6457 3.47016 17.104 5.24341 15.9219 5.37396C14.4444 5.53714 14.075 5.70032 13.3363 3.90533C12.7453 2.46933 13.4594 1.3488 13.8904 0.968032C14.1366 0.64167 14.9615 0.0542178 16.2913 0.315308Z" fill="#FF74BF"/>
<defs>
<linearGradient id="paint0_linear_890_206775" x1="43.4999" y1="29.613" x2="4.50098" y2="29.613" gradientUnits="userSpaceOnUse">
<stop stop-color="#6D5E92"/>
<stop offset="1" stop-color="#272C41"/>
</linearGradient>
</defs>
</svg>
