<svg width="48" height="48" viewBox="0 0 48 48" fill="none" xmlns="http://www.w3.org/2000/svg">
<path d="M32.5 38.5C32.5 36 30.5 34.3333 29.5 34L20.5 30.5H15.5M15.5 30.5H8V45.5H15.5V42.5M15.5 30.5V42.5M15.5 42.5L29 46L40.5 42.5C40.5 41 39.7 38.1 36.5 38.5C33.3 38.9 29.1667 39 27.5 39C26.5 38.8333 24.1 38.3 22.5 37.5" stroke="url(#paint0_linear_3303_468480)" stroke-width="1.5"/>
<g clip-path="url(#clip0_3303_468480)">
<path d="M27.5 9.49998C29.6667 9.16664 34 9.89998 34 15.5C34 22.5 35.5 24 39.5 24" stroke="url(#paint1_linear_3303_468480)" stroke-width="1.5" stroke-linecap="round"/>
<path d="M20 9.49998C17.8333 9.16664 13.5 9.89998 13.5 15.5C13.5 22.5 12 24 8 24" stroke="url(#paint2_linear_3303_468480)" stroke-width="1.5" stroke-linecap="round"/>
<mask id="mask0_3303_468480" style="mask-type:alpha" maskUnits="userSpaceOnUse" x="3" y="5" width="40" height="33">
<path d="M42.5 5H3.5L6 28.5H21C22.8333 29.3333 28 31 31 32.5C33.5298 33.7649 34.3333 35.5 34.5 37.5L42.5 32V5Z" fill="#C4C4C4"/>
</mask>
<g mask="url(#mask0_3303_468480)">
<path d="M27.5 38.5C29.6667 38.8334 34 38.1 34 32.5C34 25.5 35.5 24 39.5 24" stroke="url(#paint3_linear_3303_468480)" stroke-width="1.5" stroke-linecap="round"/>
</g>
<mask id="mask1_3303_468480" style="mask-type:alpha" maskUnits="userSpaceOnUse" x="3" y="5" width="40" height="33">
<path d="M42.5 5H3.5L6 28.5H21C22.8333 29.3333 28 31 31 32.5C33.5298 33.7649 34.3333 35.5 34.5 37.5L42.5 32V5Z" fill="#C4C4C4"/>
</mask>
<g mask="url(#mask1_3303_468480)">
<path d="M20 38.5C17.8333 38.8334 13.5 38.1 13.5 32.5C13.5 25.5 12 24 8 24" stroke="url(#paint4_linear_3303_468480)" stroke-width="1.5" stroke-linecap="round"/>
</g>
</g>
<defs>
<linearGradient id="paint0_linear_3303_468480" x1="40.5" y1="39.2893" x2="8" y2="39.2893" gradientUnits="userSpaceOnUse">
<stop stop-color="#6D5E92"/>
<stop offset="1" stop-color="#272C41"/>
</linearGradient>
<linearGradient id="paint1_linear_3303_468480" x1="39.5" y1="17.6929" x2="27.5" y2="17.6929" gradientUnits="userSpaceOnUse">
<stop stop-color="#6D5E92"/>
<stop offset="1" stop-color="#272C41"/>
</linearGradient>
<linearGradient id="paint2_linear_3303_468480" x1="8" y1="17.6929" x2="20" y2="17.6929" gradientUnits="userSpaceOnUse">
<stop stop-color="#6D5E92"/>
<stop offset="1" stop-color="#272C41"/>
</linearGradient>
<linearGradient id="paint3_linear_3303_468480" x1="39.5" y1="30.3071" x2="27.5" y2="30.3071" gradientUnits="userSpaceOnUse">
<stop stop-color="#6D5E92"/>
<stop offset="1" stop-color="#272C41"/>
</linearGradient>
<linearGradient id="paint4_linear_3303_468480" x1="8" y1="30.3071" x2="20" y2="30.3071" gradientUnits="userSpaceOnUse">
<stop stop-color="#6D5E92"/>
<stop offset="1" stop-color="#272C41"/>
</linearGradient>
<clipPath id="clip0_3303_468480">
<rect width="34" height="32" fill="white" transform="translate(7 8)"/>
</clipPath>
</defs>
</svg>
