<svg width="48" height="48" viewBox="0 0 48 48" fill="none" xmlns="http://www.w3.org/2000/svg">
<mask id="mask0_2114_335431" style="mask-type:alpha" maskUnits="userSpaceOnUse" x="21" y="16" width="29" height="30">
<path d="M34.2 23.3328L37.8462 16.0405L46.3539 19.079L50 30.0175L38.4539 44.6021L21.4385 45.2098L22.6539 39.7405L25.0846 37.3098L34.2 23.3328Z" fill="#C4C4C4"/>
</mask>
<g mask="url(#mask0_2114_335431)">
<path fill-rule="evenodd" clip-rule="evenodd" d="M22.2336 42.4673L42.7525 30.6207C43.7808 30.0271 44.133 28.7123 43.5394 27.684L38.1123 18.284C37.5186 17.2558 36.2038 16.9035 35.1756 17.4971L24.6538 23.5718V25.3039L35.9256 18.7962C36.2364 18.6167 36.6338 18.7232 36.8132 19.034L42.2404 28.434C42.4198 28.7448 42.3133 29.1423 42.0025 29.3217L24.0947 39.6608C23.6754 40.7254 23.0364 41.6796 22.2336 42.4673ZM22.6538 26.4586L13.3322 31.8405C11.878 32.6801 10.9021 34.0299 10.5 35.5333V32.3099C11.0649 31.6178 11.7626 31.0146 12.5822 30.5414L22.6538 24.7266V26.4586Z" fill="url(#paint0_linear_2114_335431)"/>
</g>
<path d="M24.6497 36.9724L35.9768 17.3531C36.5705 16.3249 36.2182 15.0101 35.19 14.4164L25.7899 8.98931C25.2137 8.65665 24.5476 8.62102 23.9688 8.83491C24.3088 9.21038 24.5428 9.68378 24.6233 10.2078C24.7623 10.1878 24.9088 10.2127 25.0399 10.2883L34.44 15.7155C34.7508 15.8949 34.8572 16.2923 34.6778 16.6031L24.6541 33.9647V36.7019C24.6541 36.7924 24.6526 36.8826 24.6497 36.9724Z" fill="url(#paint1_linear_2114_335431)"/>
<path fill-rule="evenodd" clip-rule="evenodd" d="M9.65347 8.5H21.3465C22.5359 8.5 23.5 9.46414 23.5 10.6535V36.5C23.5 40.9183 19.9183 44.5 15.5 44.5C11.0817 44.5 7.5 40.9183 7.5 36.5V10.6535C7.5 9.46414 8.46414 8.5 9.65347 8.5ZM9.65347 10C9.29257 10 9 10.2926 9 10.6535V36.5C9 40.0899 11.9101 43 15.5 43C19.0899 43 22 40.0899 22 36.5V10.6535C22 10.2926 21.7074 10 21.3465 10H9.65347Z" fill="url(#paint2_linear_2114_335431)"/>
<path fill-rule="evenodd" clip-rule="evenodd" d="M13.405 39.5625C11.525 38.477 10.8808 36.073 11.9663 34.193C13.0517 32.3129 15.4557 31.6688 17.3358 32.7542C19.2158 33.8397 19.86 36.2437 18.7745 38.1237C17.6891 40.0038 15.2851 40.6479 13.405 39.5625ZM16.5858 34.0532C15.4232 33.382 13.9365 33.7803 13.2653 34.943C12.5941 36.1056 12.9924 37.5922 14.155 38.2635C15.3176 38.9347 16.8043 38.5364 17.4755 37.3737C18.1467 36.2111 17.7484 34.7245 16.5858 34.0532Z" fill="url(#paint3_linear_2114_335431)"/>
<defs>
<linearGradient id="paint0_linear_2114_335431" x1="43.8278" y1="31.5316" x2="10.5" y2="31.5316" gradientUnits="userSpaceOnUse">
<stop stop-color="#6D5E92"/>
<stop offset="1" stop-color="#272C41"/>
</linearGradient>
<linearGradient id="paint1_linear_2114_335431" x1="36.2652" y1="24.7323" x2="23.9687" y2="24.7323" gradientUnits="userSpaceOnUse">
<stop stop-color="#6D5E92"/>
<stop offset="1" stop-color="#272C41"/>
</linearGradient>
<linearGradient id="paint2_linear_2114_335431" x1="23.5" y1="28.9138" x2="7.5" y2="28.9138" gradientUnits="userSpaceOnUse">
<stop stop-color="#6D5E92"/>
<stop offset="1" stop-color="#272C41"/>
</linearGradient>
<linearGradient id="paint3_linear_2114_335431" x1="18.511" y1="38.5802" x2="11.7027" y2="34.6495" gradientUnits="userSpaceOnUse">
<stop stop-color="#6D5E92"/>
<stop offset="1" stop-color="#272C41"/>
</linearGradient>
</defs>
</svg>
