<svg width="20" height="20" viewBox="0 0 20 20" fill="none" xmlns="http://www.w3.org/2000/svg">
<path d="M17.1405 10.9399C17.1805 10.6399 17.2005 10.3299 17.2005 9.99991C17.2005 9.67991 17.1805 9.35991 17.1305 9.05991L19.1605 7.4799C19.2479 7.4078 19.3077 7.3076 19.3296 7.19637C19.3515 7.08514 19.3341 6.96977 19.2805 6.8699L17.3605 3.54991C17.3039 3.44947 17.2137 3.37228 17.1057 3.33201C16.9977 3.29175 16.8789 3.291 16.7705 3.32991L14.3805 4.28991C13.8805 3.9099 13.3505 3.58991 12.7605 3.34991L12.4005 0.809905C12.3827 0.695435 12.3246 0.591112 12.2365 0.515881C12.1484 0.44065 12.0363 0.399501 11.9205 0.399905H8.08045C7.84045 0.399905 7.65045 0.569905 7.61045 0.809905L7.25045 3.34991C6.66045 3.58991 6.12045 3.91991 5.63045 4.28991L3.24045 3.32991C3.02045 3.24991 2.77045 3.32991 2.65045 3.54991L0.740452 6.8699C0.620452 7.07991 0.660452 7.3399 0.860452 7.4799L2.89045 9.05991C2.84045 9.35991 2.80045 9.68991 2.80045 9.99991C2.80045 10.3099 2.82045 10.6399 2.87045 10.9399L0.840452 12.5199C0.752976 12.592 0.693206 12.6922 0.671325 12.8034C0.649444 12.9147 0.666806 13.03 0.720452 13.1299L2.64045 16.4499C2.76045 16.6699 3.01045 16.7399 3.23045 16.6699L5.62045 15.7099C6.12045 16.0899 6.65045 16.4099 7.24045 16.6499L7.60045 19.1899C7.65045 19.4299 7.84045 19.5999 8.08045 19.5999H11.9205C12.1605 19.5999 12.3605 19.4299 12.3905 19.1899L12.7505 16.6499C13.3405 16.4099 13.8805 16.0899 14.3705 15.7099L16.7605 16.6699C16.9805 16.7499 17.2305 16.6699 17.3505 16.4499L19.2705 13.1299C19.3905 12.9099 19.3405 12.6599 19.1505 12.5199L17.1405 10.9399ZM10.0005 13.5999C8.02045 13.5999 6.40045 11.9799 6.40045 9.99991C6.40045 8.01991 8.02045 6.3999 10.0005 6.3999C11.9805 6.3999 13.6005 8.01991 13.6005 9.99991C13.6005 11.9799 11.9805 13.5999 10.0005 13.5999Z" fill="#7F7989"/>
</svg>
