<svg width="24" height="24" viewBox="0 0 24 24" fill="none" xmlns="http://www.w3.org/2000/svg">
<g clip-path="url(#clip0)">
<path fill-rule="evenodd" clip-rule="evenodd" d="M11.9993 -0.000671387C18.6266 -0.000671387 23.9993 5.372 23.9993 12C23.9993 18.6273 18.6266 23.9993 11.9993 23.9993C5.37127 23.9993 -0.000732422 18.6273 -0.000732422 12C-0.000732422 5.372 5.37127 -0.000671387 11.9993 -0.000671387ZM11.3279 15.9893H12.6699C13.0399 15.9893 13.3406 16.288 13.3406 16.6567V17.992C13.3406 18.3607 13.0399 18.6593 12.6699 18.6593H11.3279C11.2401 18.6595 11.1531 18.6424 11.0719 18.6089C10.9908 18.5755 10.9169 18.5264 10.8547 18.4644C10.7925 18.4025 10.7431 18.3288 10.7093 18.2478C10.6756 18.1667 10.6581 18.0798 10.6579 17.992V16.6567C10.6579 16.288 10.9579 15.9893 11.3279 15.9893ZM11.3279 5.33H12.6699C13.0399 5.33 13.3406 5.61466 13.3406 5.966V13.3413C13.3406 13.7093 13.0399 14.0073 12.6699 14.0073H11.3279C11.2402 14.0076 11.1533 13.9906 11.0722 13.9572C10.991 13.9239 10.9172 13.8749 10.855 13.8131C10.7928 13.7512 10.7434 13.6778 10.7095 13.5968C10.6757 13.5159 10.6582 13.4291 10.6579 13.3413V5.966C10.6579 5.61466 10.9579 5.33 11.3279 5.33Z" fill="#F7DD00"/>
</g>
<defs>
<clipPath id="clip0">
<rect width="24" height="24" fill="white"/>
</clipPath>
</defs>
</svg>
