<svg width="24" height="24" viewBox="0 0 24 24" fill="none" xmlns="http://www.w3.org/2000/svg">
<g clip-path="url(#clip0)">
<path fill-rule="evenodd" clip-rule="evenodd" d="M11.9992 -0.000671387C18.6265 -0.000671387 23.9985 5.37266 23.9985 12C23.9985 18.6267 18.6265 23.9993 11.9992 23.9993C5.37187 23.9993 -0.00146484 18.6267 -0.00146484 12C-0.00146484 5.37266 5.37187 -0.000671387 11.9992 -0.000671387ZM5.2952 10.6593H18.6892C19.0412 10.6593 19.3272 10.958 19.3272 11.3267V12.662C19.3272 13.0307 19.0412 13.3293 18.6892 13.3293H5.2952C4.9432 13.3293 4.65787 13.0307 4.65787 12.662V11.3267C4.65787 10.958 4.9432 10.6593 5.2952 10.6593Z" fill="#D72D51"/>
</g>
<defs>
<clipPath id="clip0">
<rect width="24" height="24" fill="white"/>
</clipPath>
</defs>
</svg>
