<svg width="24" height="24" viewBox="0 0 24 24" fill="none" xmlns="http://www.w3.org/2000/svg">
<path fill-rule="evenodd" clip-rule="evenodd" d="M18.6096 18.8352C18.5586 18.7242 18.5366 18.6682 18.5086 18.6142C17.7776 17.1772 17.0486 15.7382 16.3106 14.3042C16.2356 14.1602 16.2446 14.0742 16.3466 13.9512C17.5096 12.5462 18.6666 11.1362 19.8246 9.72719C19.873 9.67399 19.9053 9.60808 19.9176 9.53718L18.9026 9.81118C17.4966 10.1962 15.0916 10.5802 13.6876 10.9712C13.5566 11.0072 13.4966 10.9672 13.4316 10.8552C12.6336 9.47719 11.8316 8.10219 11.0306 6.72619C10.9892 6.64612 10.9292 6.57718 10.8556 6.52519C10.7916 6.89219 10.7256 7.25918 10.6626 7.62618L9.99457 11.5172C9.96957 11.6572 9.93657 11.7962 9.92457 11.9382C9.91357 12.0712 9.84757 12.1212 9.73057 12.1592C8.07457 12.6972 6.41957 13.2392 4.76557 13.7822C4.69257 13.8052 4.54357 13.9092 4.54357 13.9092L9.02757 16.9792L7.02757 17.9792C7.02757 17.9792 6.68357 18.3312 6.02757 17.9792C5.37157 17.6272 3.64757 16.6162 2.63557 16.0082C2.18157 15.7982 1.77257 15.5202 1.45357 15.1172C0.73457 14.2062 0.87657 13.1712 1.83557 12.5382C2.14957 12.3312 2.50557 12.1762 2.86057 12.0562C4.48257 11.5092 6.11057 10.9822 7.73857 10.4542C7.87457 10.4102 7.93757 10.3472 7.96357 10.1942C8.18057 8.89519 8.40557 7.59919 8.63157 6.30219C8.75257 5.61019 8.81657 4.89819 9.14257 4.26319C9.26857 4.01919 9.41857 3.78019 9.59657 3.57519C10.2426 2.83419 11.1446 2.80519 11.8276 3.51119C12.0576 3.75019 12.2566 4.03119 12.4276 4.31919C13.1787 5.58942 13.9217 6.86445 14.6566 8.14419C14.7436 8.29519 14.8226 8.32519 14.9836 8.28119C16.7976 7.77818 19.6146 7.28219 21.4306 6.78619C21.8056 6.68419 22.1846 6.64619 22.5686 6.72119C23.4066 6.88319 23.7716 7.54219 23.4886 8.37819C23.3596 8.75919 23.1376 9.08119 22.8876 9.38519C21.6196 10.9262 20.3546 12.4692 19.0826 14.0072C18.9786 14.1322 18.9766 14.2232 19.0486 14.3642C19.8076 15.8422 20.5596 17.3252 21.3146 18.8052C21.4946 19.1602 21.6326 19.5282 21.6366 19.9352C21.6453 20.373 21.4943 20.799 21.2118 21.1335C20.9293 21.4681 20.5346 21.6884 20.1016 21.7532C19.6036 21.8292 19.1396 21.7192 18.6736 21.5692C17.5356 21.2062 15.3956 20.8482 14.2556 20.4932C14.1496 20.4612 14.0906 20.3002 14.0906 20.3002L13.0276 17.9792C13.0276 17.9792 16.2806 18.3612 18.6096 18.8352Z" fill="#7F7989"/>
</svg>
