<svg width="48" height="48" viewBox="0 0 48 48" fill="none" xmlns="http://www.w3.org/2000/svg">
<path fill-rule="evenodd" clip-rule="evenodd" d="M23.5 11.75C16.72 11.75 13.1357 16.774 12.2022 19.2633L12.0377 19.7022L11.5711 19.7466C9.92065 19.9038 7.42963 20.5705 5.37266 22.0358C3.34308 23.4817 1.75 25.6874 1.75 29C1.75 32.3444 3.20673 34.5529 5.02647 35.9857C6.85799 37.4278 9.06884 38.0878 10.5403 38.25H35C38.2073 38.25 40.6486 37.7428 42.2093 36.5767C43.7023 35.4611 44.5313 33.6284 44.2531 30.5679C44.032 28.1363 42.5731 26.5312 40.6926 25.4649C38.7949 24.3889 36.5329 23.907 34.9254 23.7463L34.378 23.6915L34.2658 23.153C33.8662 21.2349 32.8282 18.3429 31.037 15.9494C29.252 13.564 26.7838 11.75 23.5 11.75ZM10.973 18.3059C12.2606 15.3607 16.248 10.25 23.5 10.25C27.4162 10.25 30.2814 12.436 32.238 15.0506C34.0289 17.4439 35.1129 20.2598 35.6141 22.3162C37.2945 22.5369 39.5028 23.066 41.4324 24.1601C43.5936 25.3855 45.468 27.3637 45.7469 30.4321C46.0572 33.845 45.1362 36.2622 43.1071 37.7783C41.1457 39.2438 38.2927 39.75 35 39.75H10.4606L10.4215 39.7459C8.72598 39.5674 6.2094 38.8263 4.09853 37.1643C1.95994 35.4804 0.25 32.8556 0.25 29C0.25 25.1126 2.15692 22.485 4.50234 20.8141C6.63679 19.2936 9.14511 18.5514 10.973 18.3059Z" fill="#4B466B"/>
<path fill-rule="evenodd" clip-rule="evenodd" d="M23 19.9393L30.0303 26.9697L28.9697 28.0303L23 22.0607L17.0303 28.0303L15.9697 26.9697L23 19.9393Z" fill="#4B466B"/>
<path fill-rule="evenodd" clip-rule="evenodd" d="M23.75 22V34H22.25V22H23.75Z" fill="#4B466B"/>
</svg>
