<svg width="52" height="54" viewBox="0 0 52 54" fill="none" xmlns="http://www.w3.org/2000/svg">
<rect x="14.8572" y="8.19047" width="9.90476" height="9.90476" rx="0.619048" stroke="url(#paint0_linear_3303_468477)" stroke-width="1.2381"/>
<rect x="36.5238" y="18.7143" width="9.90476" height="9.90476" rx="0.619048" stroke="url(#paint1_linear_3303_468477)" stroke-width="1.2381"/>
<rect x="35.2857" y="34.8095" width="9.90476" height="9.90476" rx="0.619048" stroke="url(#paint2_linear_3303_468477)" stroke-width="1.2381"/>
<rect x="6.80948" y="36.0476" width="9.90476" height="9.90476" rx="0.619048" stroke="url(#paint3_linear_3303_468477)" stroke-width="1.2381"/>
<path d="M16.7142 13.1429L18.7777 15L22.9047 11.2857" stroke="url(#paint4_linear_3303_468477)" stroke-width="1.2381"/>
<path d="M38.381 23.6667L40.4445 25.5238L44.5715 21.8095" stroke="url(#paint5_linear_3303_468477)" stroke-width="1.2381"/>
<path d="M37.1428 39.7619L39.2063 41.619L43.3333 37.9048" stroke="url(#paint6_linear_3303_468477)" stroke-width="1.2381"/>
<path d="M8.66663 41L10.7301 42.8571L14.8571 39.1429" stroke="url(#paint7_linear_3303_468477)" stroke-width="1.2381"/>
<path fill-rule="evenodd" clip-rule="evenodd" d="M26.8049 25.5236H25.7114V27.7106H23.5242V28.8041H25.7114V30.9911H26.8049V28.8041H28.9916V27.7106H26.8049V25.5236Z" fill="url(#paint8_linear_3303_468477)"/>
<rect x="20.4286" y="22.4286" width="11.1429" height="11.1429" rx="5.57143" stroke="url(#paint9_linear_3303_468477)" stroke-width="1.2381"/>
<path d="M21.6666 18.0952L23.5238 23.0476" stroke="url(#paint10_linear_3303_468477)" stroke-width="1.2381"/>
<path d="M36.5238 24.2857L31.5714 26.1429" stroke="url(#paint11_linear_3303_468477)" stroke-width="1.2381"/>
<path d="M16.7142 36.0476L21.6666 31.7143" stroke="url(#paint12_linear_3303_468477)" stroke-width="1.2381"/>
<path d="M35.2858 35.4286L30.3334 31.7143" stroke="url(#paint13_linear_3303_468477)" stroke-width="1.2381"/>
<defs>
<linearGradient id="paint0_linear_3303_468477" x1="25.381" y1="13.89" x2="14.2382" y2="13.89" gradientUnits="userSpaceOnUse">
<stop stop-color="#6D5E92"/>
<stop offset="1" stop-color="#272C41"/>
</linearGradient>
<linearGradient id="paint1_linear_3303_468477" x1="47.0476" y1="24.4138" x2="35.9048" y2="24.4138" gradientUnits="userSpaceOnUse">
<stop stop-color="#6D5E92"/>
<stop offset="1" stop-color="#272C41"/>
</linearGradient>
<linearGradient id="paint2_linear_3303_468477" x1="45.8095" y1="40.509" x2="34.6666" y2="40.509" gradientUnits="userSpaceOnUse">
<stop stop-color="#6D5E92"/>
<stop offset="1" stop-color="#272C41"/>
</linearGradient>
<linearGradient id="paint3_linear_3303_468477" x1="17.3333" y1="41.7471" x2="6.19043" y2="41.7471" gradientUnits="userSpaceOnUse">
<stop stop-color="#6D5E92"/>
<stop offset="1" stop-color="#272C41"/>
</linearGradient>
<linearGradient id="paint4_linear_3303_468477" x1="22.9047" y1="13.3919" x2="16.7142" y2="13.3919" gradientUnits="userSpaceOnUse">
<stop stop-color="#6D5E92"/>
<stop offset="1" stop-color="#272C41"/>
</linearGradient>
<linearGradient id="paint5_linear_3303_468477" x1="44.5715" y1="23.9157" x2="38.381" y2="23.9157" gradientUnits="userSpaceOnUse">
<stop stop-color="#6D5E92"/>
<stop offset="1" stop-color="#272C41"/>
</linearGradient>
<linearGradient id="paint6_linear_3303_468477" x1="43.3333" y1="40.0109" x2="37.1428" y2="40.0109" gradientUnits="userSpaceOnUse">
<stop stop-color="#6D5E92"/>
<stop offset="1" stop-color="#272C41"/>
</linearGradient>
<linearGradient id="paint7_linear_3303_468477" x1="14.8571" y1="41.249" x2="8.66663" y2="41.249" gradientUnits="userSpaceOnUse">
<stop stop-color="#6D5E92"/>
<stop offset="1" stop-color="#272C41"/>
</linearGradient>
<linearGradient id="paint8_linear_3303_468477" x1="28.9916" y1="28.6239" x2="23.5242" y2="28.6239" gradientUnits="userSpaceOnUse">
<stop stop-color="#6D5E92"/>
<stop offset="1" stop-color="#272C41"/>
</linearGradient>
<linearGradient id="paint9_linear_3303_468477" x1="32.1905" y1="28.8301" x2="19.8096" y2="28.8301" gradientUnits="userSpaceOnUse">
<stop stop-color="#6D5E92"/>
<stop offset="1" stop-color="#272C41"/>
</linearGradient>
<linearGradient id="paint10_linear_3303_468477" x1="23.5238" y1="22.4286" x2="22.2857" y2="18.7143" gradientUnits="userSpaceOnUse">
<stop stop-color="#3E3D5C"/>
<stop offset="1" stop-color="#574E78"/>
</linearGradient>
<linearGradient id="paint11_linear_3303_468477" x1="36.5238" y1="24.2857" x2="31.5714" y2="26.1429" gradientUnits="userSpaceOnUse">
<stop stop-color="#2D3047"/>
<stop offset="1" stop-color="#685B8C"/>
</linearGradient>
<linearGradient id="paint12_linear_3303_468477" x1="21.6666" y1="31.7143" x2="16.7142" y2="36.0476" gradientUnits="userSpaceOnUse">
<stop stop-color="#31334D"/>
<stop offset="1" stop-color="#675A8B"/>
</linearGradient>
<linearGradient id="paint13_linear_3303_468477" x1="35.2858" y1="34.8095" x2="30.3334" y2="31.7143" gradientUnits="userSpaceOnUse">
<stop stop-color="#2E3149"/>
<stop offset="1" stop-color="#645888"/>
</linearGradient>
</defs>
</svg>
