<svg width="20" height="18" viewBox="0 0 20 18" fill="none" xmlns="http://www.w3.org/2000/svg">
<path fill-rule="evenodd" clip-rule="evenodd" d="M13.77 17.9234C14.0549 18.0344 14.3799 18.0273 14.6675 17.8889L18.3927 16.0964C18.7841 15.908 19.0331 15.5119 19.0331 15.0773L19.0331 2.9231C19.0331 2.48849 18.7841 2.09233 18.3927 1.90397L14.6675 0.111438C14.2901 -0.0702014 13.8483 -0.0257113 13.5169 0.215148C13.4696 0.249555 13.4246 0.287972 13.3822 0.330308L6.25084 6.83642L3.14455 4.47849C2.85539 4.25899 2.45092 4.27698 2.18236 4.52127L1.18607 5.42754C0.857569 5.72636 0.857192 6.24318 1.18526 6.54249L3.87914 9.00016L1.18526 11.4578C0.857191 11.7572 0.857568 12.274 1.18607 12.5728L2.18236 13.479C2.45092 13.7234 2.85539 13.7413 3.14455 13.5219L6.25084 11.1639L13.3822 17.67C13.495 17.7829 13.6275 17.8679 13.77 17.9234ZM14.5124 4.8927L9.10131 9.00016L14.5124 13.1076L14.5124 4.8927Z" fill="#7F7989"/>
</svg>
