<svg width="24" height="24" viewBox="0 0 24 24" fill="none" xmlns="http://www.w3.org/2000/svg">
<path d="M9.18945 15.4209L7.56934 9.41211L5.92871 15.4209C5.80111 15.8766 5.69857 16.2048 5.62109 16.4053C5.54818 16.6012 5.41829 16.779 5.23145 16.9385C5.0446 17.0934 4.79622 17.1709 4.48633 17.1709C4.23568 17.1709 4.02832 17.123 3.86426 17.0273C3.70475 16.9362 3.57487 16.8063 3.47461 16.6377C3.37435 16.4645 3.29232 16.2617 3.22852 16.0293C3.16471 15.7923 3.10775 15.5736 3.05762 15.373L1.38965 8.62598C1.28939 8.23405 1.23926 7.93555 1.23926 7.73047C1.23926 7.4707 1.3304 7.25195 1.5127 7.07422C1.69499 6.89648 1.92057 6.80762 2.18945 6.80762C2.55859 6.80762 2.80697 6.92611 2.93457 7.16309C3.06217 7.40007 3.17383 7.74414 3.26953 8.19531L4.58203 14.0469L6.05176 8.57129C6.16113 8.15202 6.25911 7.83301 6.3457 7.61426C6.43229 7.39551 6.57357 7.20638 6.76953 7.04688C6.96549 6.88737 7.2321 6.80762 7.56934 6.80762C7.91113 6.80762 8.17546 6.89193 8.3623 7.06055C8.55371 7.22461 8.68587 7.40462 8.75879 7.60059C8.83171 7.79655 8.92969 8.12012 9.05273 8.57129L10.5361 14.0469L11.8486 8.19531C11.9124 7.88997 11.9717 7.65072 12.0264 7.47754C12.0856 7.30436 12.1836 7.14941 12.3203 7.0127C12.4616 6.87598 12.6644 6.80762 12.9287 6.80762C13.193 6.80762 13.4163 6.89648 13.5986 7.07422C13.7855 7.2474 13.8789 7.46615 13.8789 7.73047C13.8789 7.91732 13.8288 8.21582 13.7285 8.62598L12.0605 15.373C11.9466 15.8288 11.8509 16.1637 11.7734 16.3779C11.7005 16.5876 11.5729 16.7721 11.3906 16.9316C11.2129 17.0911 10.96 17.1709 10.6318 17.1709C10.3219 17.1709 10.0736 17.0934 9.88672 16.9385C9.69987 16.7835 9.56999 16.6104 9.49707 16.4189C9.42415 16.223 9.32161 15.8903 9.18945 15.4209ZM21.2207 8.54395H17.2217V11.1074H20.5645C20.8743 11.1074 21.1045 11.1781 21.2549 11.3193C21.4098 11.4561 21.4873 11.6406 21.4873 11.873C21.4873 12.1055 21.4098 12.29 21.2549 12.4268C21.0999 12.5635 20.8698 12.6318 20.5645 12.6318H17.2217V15.9336C17.2217 16.3529 17.126 16.665 16.9346 16.8701C16.7477 17.0706 16.5062 17.1709 16.21 17.1709C15.9092 17.1709 15.6631 17.0684 15.4717 16.8633C15.2848 16.6582 15.1914 16.3483 15.1914 15.9336V8.22266C15.1914 7.93099 15.2347 7.69401 15.3213 7.51172C15.4079 7.32487 15.5423 7.19043 15.7246 7.1084C15.9115 7.02181 16.1484 6.97852 16.4355 6.97852H21.2207C21.5443 6.97852 21.7835 7.05143 21.9385 7.19727C22.098 7.33854 22.1777 7.52539 22.1777 7.75781C22.1777 7.99479 22.098 8.1862 21.9385 8.33203C21.7835 8.47331 21.5443 8.54395 21.2207 8.54395Z" fill="#7F7989"/>
<path d="M9.18945 15.4209L8.99634 15.473L8.99694 15.4751L9.18945 15.4209ZM7.56934 9.41211L7.76244 9.36004L7.57055 8.64835L7.3764 9.35943L7.56934 9.41211ZM5.92871 15.4209L6.12131 15.4748L6.12165 15.4736L5.92871 15.4209ZM5.62109 16.4053L5.43452 16.3332L5.43365 16.3355L5.62109 16.4053ZM5.23145 16.9385L5.35913 17.0924L5.3613 17.0906L5.23145 16.9385ZM3.86426 17.0273L3.96504 16.8546L3.96349 16.8537L3.86426 17.0273ZM3.47461 16.6377L3.30151 16.7379L3.3027 16.7399L3.47461 16.6377ZM3.22852 16.0293L3.03539 16.0813L3.03565 16.0822L3.22852 16.0293ZM3.05762 15.373L2.86346 15.421L2.86359 15.4216L3.05762 15.373ZM1.38965 8.62598L1.58381 8.57798L1.58341 8.57641L1.38965 8.62598ZM2.93457 7.16309L2.75848 7.25791L2.93457 7.16309ZM3.26953 8.19531L3.07387 8.23682L3.07438 8.23908L3.26953 8.19531ZM4.58203 14.0469L4.38688 14.0906L4.77519 14.0987L4.58203 14.0469ZM6.05176 8.57129L6.24493 8.62314L6.24528 8.62177L6.05176 8.57129ZM8.3623 7.06055L8.22827 7.20907L8.23215 7.2124L8.3623 7.06055ZM9.05273 8.57129L9.24578 8.51899L9.24569 8.51867L9.05273 8.57129ZM10.5361 14.0469L10.3431 14.0992L10.7313 14.0906L10.5361 14.0469ZM11.8486 8.19531L12.0438 8.23909L12.0444 8.23622L11.8486 8.19531ZM12.0264 7.47754L11.8371 7.41278L11.8357 7.41731L12.0264 7.47754ZM12.3203 7.0127L12.1812 6.86896L12.1789 6.87127L12.3203 7.0127ZM13.5986 7.07422L13.459 7.21746L13.4627 7.2209L13.5986 7.07422ZM13.7285 8.62598L13.9227 8.67397L13.9228 8.67347L13.7285 8.62598ZM12.0605 15.373L12.2546 15.4216L12.2547 15.421L12.0605 15.373ZM11.7734 16.3779L11.5853 16.3099L11.5845 16.3122L11.7734 16.3779ZM11.3906 16.9316L11.2589 16.7811L11.257 16.7828L11.3906 16.9316ZM9.49707 16.4189L9.30962 16.4887L9.31017 16.4901L9.49707 16.4189ZM9.38256 15.3688L7.76244 9.36004L7.37623 9.46417L8.99635 15.473L9.38256 15.3688ZM7.3764 9.35943L5.73577 15.3682L6.12165 15.4736L7.76227 9.46479L7.3764 9.35943ZM5.73612 15.367C5.6087 15.822 5.5083 16.1423 5.43453 16.3332L5.80765 16.4774C5.88883 16.2672 5.99352 15.9312 6.1213 15.4748L5.73612 15.367ZM5.43365 16.3355C5.37453 16.4944 5.2671 16.6451 5.10159 16.7864L5.3613 17.0906C5.56949 16.9129 5.72182 16.7081 5.80854 16.475L5.43365 16.3355ZM5.10378 16.7845C4.96179 16.9023 4.76277 16.9709 4.48633 16.9709V17.3709C4.82968 17.3709 5.1274 17.2846 5.35911 17.0924L5.10378 16.7845ZM4.48633 16.9709C4.2601 16.9709 4.09024 16.9276 3.96503 16.8546L3.76348 17.2001C3.9664 17.3185 4.21126 17.3709 4.48633 17.3709V16.9709ZM3.96349 16.8537C3.836 16.7808 3.73036 16.6765 3.64652 16.5355L3.3027 16.7399C3.41938 16.9361 3.5735 17.0915 3.76503 17.201L3.96349 16.8537ZM3.64769 16.5375C3.55757 16.3818 3.48154 16.1955 3.42138 15.9764L3.03565 16.0822C3.1031 16.3279 3.19113 16.5472 3.30152 16.7379L3.64769 16.5375ZM3.42164 15.9773C3.35809 15.7413 3.30144 15.5237 3.25165 15.3245L2.86359 15.4216C2.91406 15.6234 2.97133 15.8434 3.03539 16.0813L3.42164 15.9773ZM3.25177 15.325L1.5838 8.57798L1.19549 8.67397L2.86346 15.421L3.25177 15.325ZM1.58341 8.57641C1.4841 8.18821 1.43926 7.90958 1.43926 7.73047H1.03926C1.03926 7.96152 1.09467 8.27989 1.19589 8.67554L1.58341 8.57641ZM1.43926 7.73047C1.43926 7.52339 1.5095 7.35666 1.65232 7.21742L1.37308 6.93102C1.1513 7.14725 1.03926 7.41801 1.03926 7.73047H1.43926ZM1.65232 7.21742C1.795 7.0783 1.9695 7.00762 2.18945 7.00762V6.60762C1.87165 6.60762 1.59497 6.71467 1.37308 6.93102L1.65232 7.21742ZM2.18945 7.00762C2.51622 7.00762 2.6784 7.1092 2.75848 7.25791L3.11066 7.06827C2.93553 6.74302 2.60097 6.60762 2.18945 6.60762V7.00762ZM2.75848 7.25791C2.87288 7.47037 2.97975 7.79302 3.07388 8.23681L3.46518 8.15381C3.36791 7.69527 3.25147 7.32976 3.11066 7.06827L2.75848 7.25791ZM3.07438 8.23908L4.38688 14.0906L4.77718 14.0031L3.46468 8.15154L3.07438 8.23908ZM4.77519 14.0987L6.24492 8.62314L5.85859 8.51944L4.38887 13.995L4.77519 14.0987ZM6.24528 8.62177C6.354 8.205 6.44958 7.89525 6.53166 7.68787L6.15974 7.54065C6.06865 7.77077 5.96826 8.09904 5.85823 8.5208L6.24528 8.62177ZM6.53166 7.68787C6.60473 7.50329 6.72435 7.34153 6.89579 7.20199L6.64328 6.89176C6.42279 7.07123 6.25986 7.28772 6.15974 7.54065L6.53166 7.68787ZM6.89579 7.20199C7.04571 7.07996 7.26265 7.00762 7.56934 7.00762V6.60762C7.20154 6.60762 6.88528 6.69478 6.64328 6.89176L6.89579 7.20199ZM7.56934 7.00762C7.87955 7.00762 8.08964 7.08388 8.22831 7.20903L8.4963 6.91207C8.26127 6.69997 7.94272 6.60762 7.56934 6.60762V7.00762ZM8.23215 7.2124C8.40308 7.35891 8.51246 7.51208 8.57134 7.67033L8.94623 7.53084C8.85928 7.29716 8.70434 7.09031 8.49246 6.9087L8.23215 7.2124ZM8.57134 7.67033C8.64087 7.85719 8.73687 8.17325 8.85978 8.62391L9.24569 8.51867C9.1225 8.06698 9.02254 7.73591 8.94623 7.53084L8.57134 7.67033ZM8.85969 8.62359L10.3431 14.0992L10.7292 13.9946L9.24578 8.51899L8.85969 8.62359ZM10.7313 14.0906L12.0438 8.23908L11.6535 8.15154L10.341 14.0031L10.7313 14.0906ZM12.0444 8.23622C12.1077 7.9335 12.1653 7.70167 12.2171 7.53777L11.8357 7.41731C11.778 7.59976 11.7172 7.84645 11.6529 8.15441L12.0444 8.23622ZM12.2156 7.54228C12.2644 7.3996 12.3453 7.2705 12.4617 7.15412L12.1789 6.87127C12.0218 7.02832 11.9068 7.20913 11.8371 7.4128L12.2156 7.54228ZM12.4594 7.15642C12.552 7.0668 12.698 7.00762 12.9287 7.00762V6.60762C12.6308 6.60762 12.3712 6.68516 12.1812 6.86897L12.4594 7.15642ZM12.9287 7.00762C13.1431 7.00762 13.3156 7.07762 13.459 7.21742L13.7383 6.93102C13.5171 6.71535 13.243 6.60762 12.9287 6.60762V7.00762ZM13.4627 7.2209C13.607 7.35466 13.6789 7.51946 13.6789 7.73047H14.0789C14.0789 7.41283 13.964 7.14013 13.7346 6.92753L13.4627 7.2209ZM13.6789 7.73047C13.6789 7.89124 13.6342 8.1694 13.5342 8.57849L13.9228 8.67347C14.0233 8.26224 14.0789 7.9434 14.0789 7.73047H13.6789ZM13.5344 8.57798L11.8664 15.325L12.2547 15.421L13.9227 8.67397L13.5344 8.57798ZM11.8665 15.3245C11.7529 15.7791 11.6592 16.1058 11.5854 16.3099L11.9615 16.446C12.0426 16.2217 12.1403 15.8785 12.2546 15.4216L11.8665 15.3245ZM11.5845 16.3122C11.524 16.4862 11.4176 16.6423 11.2589 16.7811L11.5223 17.0822C11.7283 16.902 11.877 16.689 11.9623 16.4436L11.5845 16.3122ZM11.257 16.7828C11.1278 16.8988 10.9292 16.9709 10.6318 16.9709V17.3709C10.9907 17.3709 11.298 17.2835 11.5242 17.0805L11.257 16.7828ZM10.6318 16.9709C10.3554 16.9709 10.1564 16.9023 10.0144 16.7845L9.75905 17.0924C9.99076 17.2846 10.2885 17.3709 10.6318 17.3709V16.9709ZM10.0144 16.7845C9.84916 16.6475 9.74251 16.5014 9.68397 16.3477L9.31017 16.4901C9.39746 16.7193 9.55058 16.9196 9.75905 17.0924L10.0144 16.7845ZM9.68451 16.3492C9.61472 16.1616 9.51407 15.8359 9.38197 15.3667L8.99694 15.4751C9.12916 15.9447 9.23359 16.2843 9.30963 16.4887L9.68451 16.3492ZM17.2217 8.54395V8.34395H17.0217V8.54395H17.2217ZM17.2217 11.1074H17.0217V11.3074H17.2217V11.1074ZM21.2549 11.3193L21.1179 11.4652L21.1226 11.4693L21.2549 11.3193ZM21.2549 12.4268L21.1226 12.2768L21.2549 12.4268ZM17.2217 12.6318V12.4318H17.0217V12.6318H17.2217ZM16.9346 16.8701L16.7884 16.7337L16.7882 16.7338L16.9346 16.8701ZM15.4717 16.8633L15.3238 16.998L15.3255 16.9997L15.4717 16.8633ZM15.3213 7.51172L15.502 7.59753L15.5028 7.59581L15.3213 7.51172ZM15.7246 7.1084L15.8067 7.29079L15.8087 7.28986L15.7246 7.1084ZM21.9385 7.19727L21.8013 7.34297L21.8059 7.34698L21.9385 7.19727ZM21.9385 8.33203L22.0732 8.47982L22.0734 8.47964L21.9385 8.33203ZM21.2207 8.34395H17.2217V8.74395H21.2207V8.34395ZM17.0217 8.54395V11.1074H17.4217V8.54395H17.0217ZM17.2217 11.3074H20.5645V10.9074H17.2217V11.3074ZM20.5645 11.3074C20.8485 11.3074 21.0195 11.3727 21.1179 11.4651L21.3918 11.1736C21.1894 10.9835 20.9002 10.9074 20.5645 10.9074V11.3074ZM21.1226 11.4693C21.2288 11.5631 21.2873 11.69 21.2873 11.873H21.6873C21.6873 11.5912 21.5908 11.349 21.3872 11.1694L21.1226 11.4693ZM21.2873 11.873C21.2873 12.0561 21.2288 12.183 21.1226 12.2768L21.3872 12.5767C21.5908 12.3971 21.6873 12.1549 21.6873 11.873H21.2873ZM21.1226 12.2768C21.0182 12.3689 20.8438 12.4318 20.5645 12.4318V12.8318C20.8958 12.8318 21.1817 12.7581 21.3872 12.5767L21.1226 12.2768ZM20.5645 12.4318H17.2217V12.8318H20.5645V12.4318ZM17.0217 12.6318V15.9336H17.4217V12.6318H17.0217ZM17.0217 15.9336C17.0217 16.3267 16.9315 16.5803 16.7884 16.7337L17.0808 17.0066C17.3205 16.7498 17.4217 16.379 17.4217 15.9336H17.0217ZM16.7882 16.7338C16.6425 16.8902 16.4557 16.9709 16.21 16.9709V17.3709C16.5567 17.3709 16.8529 17.2511 17.0809 17.0065L16.7882 16.7338ZM16.21 16.9709C15.9601 16.9709 15.7685 16.8882 15.6179 16.7268L15.3255 16.9997C15.5577 17.2485 15.8582 17.3709 16.21 17.3709V16.9709ZM15.6195 16.7286C15.4795 16.5749 15.3914 16.3225 15.3914 15.9336H14.9914C14.9914 16.3741 15.0901 16.7415 15.3238 16.998L15.6195 16.7286ZM15.3914 15.9336V8.22266H14.9914V15.9336H15.3914ZM15.3914 8.22266C15.3914 7.94844 15.4325 7.7438 15.5019 7.59753L15.1406 7.42591C15.0369 7.64422 14.9914 7.91354 14.9914 8.22266H15.3914ZM15.5028 7.59581C15.5698 7.45117 15.6697 7.35243 15.8067 7.29078L15.6425 6.92601C15.4149 7.02843 15.246 7.19857 15.1398 7.42763L15.5028 7.59581ZM15.8087 7.28986C15.961 7.21931 16.1668 7.17852 16.4355 7.17852V6.77852C16.1301 6.77852 15.862 6.82431 15.6405 6.92694L15.8087 7.28986ZM16.4355 7.17852H21.2207V6.77852H16.4355V7.17852ZM21.2207 7.17852C21.5192 7.17852 21.6989 7.24639 21.8014 7.34291L22.0756 7.05163C21.8682 6.85648 21.5694 6.77852 21.2207 6.77852V7.17852ZM21.8059 7.34698C21.9183 7.44659 21.9777 7.5768 21.9777 7.75781H22.3777C22.3777 7.47398 22.2776 7.23049 22.0711 7.04755L21.8059 7.34698ZM21.9777 7.75781C21.9777 7.94469 21.9173 8.08038 21.8035 8.18443L22.0734 8.47964C22.2786 8.29202 22.3777 8.0449 22.3777 7.75781H21.9777ZM21.8037 8.18424C21.7012 8.27773 21.5205 8.34395 21.2207 8.34395V8.74395C21.568 8.74395 21.8659 8.66888 22.0732 8.47982L21.8037 8.18424Z" fill="#7F7989"/>
<path fill-rule="evenodd" clip-rule="evenodd" d="M22 4C23.1046 4 24 3.10457 24 2C24 0.895431 23.1046 0 22 0C21.2597 0 20.6134 0.402199 20.2676 1H0V3H20.2676C20.6134 3.5978 21.2597 4 22 4Z" fill="#7F7989"/>
<path fill-rule="evenodd" clip-rule="evenodd" d="M2 20C0.895431 20 0 20.8954 0 22C0 23.1046 0.89543 24 2 24C2.74028 24 3.38663 23.5978 3.73244 23L24 23V21L3.73243 21C3.38663 20.4022 2.74028 20 2 20Z" fill="#7F7989"/>
</svg>
