<svg width="20" height="20" viewBox="0 0 20 20" fill="none" xmlns="http://www.w3.org/2000/svg">
    <path d="M9.99939 14.1668C10.2355 14.1668 10.4334 14.0869 10.5931 13.9272C10.7529 13.7675 10.8327 13.5696 10.8327 13.3335C10.8327 13.0973 10.7529 12.8994 10.5931 12.7397C10.4334 12.58 10.2355 12.5001 9.99939 12.5001C9.76328 12.5001 9.56536 12.58 9.40564 12.7397C9.24592 12.8994 9.16606 13.0973 9.16606 13.3335C9.16606 13.5696 9.24592 13.7675 9.40564 13.9272C9.56536 14.0869 9.76328 14.1668 9.99939 14.1668ZM9.16606 10.8335H10.8327V5.83346H9.16606V10.8335ZM6.87439 17.5001L2.49939 13.1251V6.87512L6.87439 2.50012H13.1244L17.4994 6.87512V13.1251L13.1244 17.5001H6.87439Z" fill="#E64C67"/>
</svg>
