<svg width="21" height="20" viewBox="0 0 21 20" fill="none" xmlns="http://www.w3.org/2000/svg">
    <g clip-path="url(#clip0_1216_9627)">
        <path d="M19.114 9.0835L11.2499 1.21946C11.0087 0.978233 10.671 0.833496 10.3333 0.833496C9.99554 0.833496 9.65782 0.978233 9.4166 1.21946L7.728 2.90806L9.70607 4.88613C9.89905 4.78964 10.092 4.74139 10.3333 4.74139C11.1534 4.74139 11.7806 5.36858 11.7806 6.18876C11.7806 6.42999 11.7324 6.62297 11.6359 6.81595L13.5657 8.74578C13.7587 8.64928 13.9517 8.60104 14.1929 8.60104C15.0131 8.60104 15.6403 9.22823 15.6403 10.0484C15.6403 10.8686 15.0131 11.4958 14.1929 11.4958C13.3727 11.4958 12.7455 10.8686 12.7455 10.0484C12.7455 9.80718 12.7938 9.6142 12.8903 9.42122L10.9605 7.49139C10.9122 7.49139 10.864 7.53964 10.8157 7.53964V12.5572C11.3947 12.7502 11.7806 13.2809 11.7806 13.9081C11.7806 14.7282 11.1534 15.3554 10.3333 15.3554C9.51309 15.3554 8.88589 14.7282 8.88589 13.9081C8.88589 13.2809 9.27186 12.7502 9.85081 12.5572V7.49139C9.27186 7.29841 8.88589 6.76771 8.88589 6.14051C8.88589 5.89929 8.93414 5.7063 9.03063 5.51332L7.05256 3.53525L1.55256 9.0835C1.31133 9.32472 1.1666 9.66244 1.1666 10.0002C1.1666 10.3379 1.31133 10.6756 1.55256 10.9168L9.4166 18.7809C9.65782 19.0221 9.99554 19.1668 10.3333 19.1668C10.671 19.1668 11.0087 19.0221 11.2499 18.7809L19.114 10.9168C19.3552 10.6756 19.4999 10.3379 19.4999 10.0002C19.4999 9.66244 19.3552 9.32472 19.114 9.0835Z" fill="#F4511E"/>
    </g>
    <defs>
        <clipPath id="clip0_1216_9627">
            <rect width="20" height="20" fill="white" transform="translate(0.333252 0.00012207)"/>
        </clipPath>
    </defs>
</svg>
