<svg width="24" height="24" viewBox="0 0 24 24" fill="none" xmlns="http://www.w3.org/2000/svg">
    <path d="M5.7 4C5.24913 4 4.81673 4.17911 4.49792 4.49792C4.17911 4.81673 4 5.24913 4 5.7C4 6.15087 4.17911 6.58327 4.49792 6.90208C4.81673 7.22089 5.24913 7.4 5.7 7.4C5.99818 7.39976 6.29106 7.3211 6.54924 7.17191C6.80741 7.02271 7.02181 6.80823 7.1709 6.55H19.3V11.65H15.9V9.55488C15.9 9.23868 15.7256 8.94903 15.4451 8.80283C15.1655 8.65663 14.8261 8.67657 14.5669 8.85762L10.3169 11.8011C10.0874 11.96 9.95 12.2212 9.95 12.5C9.95 12.7788 10.0874 13.04 10.3169 13.1989L14.5669 16.1424C14.7114 16.2427 14.88 16.2951 15.05 16.2951C15.1851 16.2951 15.321 16.2618 15.4451 16.1972C15.7256 16.0501 15.9 15.7613 15.9 15.4451V13.35H21V4.85H7.16924C7.02029 4.59201 6.80616 4.37769 6.5483 4.22851C6.29044 4.07933 5.9979 4.00053 5.7 4ZM4 11.65V13.35H5.7V11.65H4ZM7.4 11.65V13.35H9.1V11.65H7.4ZM4 15.05V16.75H5.7V15.05H4ZM19.3 17.6C18.8491 17.6 18.4167 17.7791 18.0979 18.0979C17.7791 18.4167 17.6 18.8491 17.6 19.3C17.6 19.7509 17.7791 20.1833 18.0979 20.5021C18.4167 20.8209 18.8491 21 19.3 21C19.7509 21 20.1833 20.8209 20.5021 20.5021C20.8209 20.1833 21 19.7509 21 19.3C21 18.8491 20.8209 18.4167 20.5021 18.0979C20.1833 17.7791 19.7509 17.6 19.3 17.6ZM4 18.45V20.15H5.7V18.45H4ZM7.4 18.45V20.15H9.1V18.45H7.4ZM10.8 18.45V20.15H12.5V18.45H10.8ZM14.2 18.45V20.15H15.9V18.45H14.2Z" fill="#7F7989"/>
</svg>
