<svg width="20" height="20" viewBox="0 0 20 20" fill="none" xmlns="http://www.w3.org/2000/svg">
    <path d="M9.99939 13.7501C10.2119 13.7501 10.39 13.6782 10.5338 13.5345C10.6775 13.3907 10.7494 13.2126 10.7494 13.0001C10.7494 12.7876 10.6775 12.6095 10.5338 12.4657C10.39 12.322 10.2119 12.2501 9.99939 12.2501C9.78689 12.2501 9.60877 12.322 9.46501 12.4657C9.32126 12.6095 9.24939 12.7876 9.24939 13.0001C9.24939 13.2126 9.32126 13.3907 9.46501 13.5345C9.60877 13.6782 9.78689 13.7501 9.99939 13.7501ZM9.24939 10.7501H10.7494V6.25012H9.24939V10.7501ZM9.99939 17.5001C8.96189 17.5001 7.98689 17.3032 7.07439 16.9095C6.16189 16.5157 5.36814 15.9814 4.69314 15.3064C4.01814 14.6314 3.48376 13.8376 3.09001 12.9251C2.69626 12.0126 2.49939 11.0376 2.49939 10.0001C2.49939 8.96262 2.69626 7.98762 3.09001 7.07512C3.48376 6.16262 4.01814 5.36887 4.69314 4.69387C5.36814 4.01887 6.16189 3.4845 7.07439 3.09075C7.98689 2.697 8.96189 2.50012 9.99939 2.50012C11.0369 2.50012 12.0119 2.697 12.9244 3.09075C13.8369 3.4845 14.6306 4.01887 15.3056 4.69387C15.9806 5.36887 16.515 6.16262 16.9088 7.07512C17.3025 7.98762 17.4994 8.96262 17.4994 10.0001C17.4994 11.0376 17.3025 12.0126 16.9088 12.9251C16.515 13.8376 15.9806 14.6314 15.3056 15.3064C14.6306 15.9814 13.8369 16.5157 12.9244 16.9095C12.0119 17.3032 11.0369 17.5001 9.99939 17.5001Z" fill="#B9C0E2"/>
</svg>
