<svg width="21" height="20" viewBox="0 0 21 20" fill="none" xmlns="http://www.w3.org/2000/svg">
    <path d="M3.66658 16.6668C3.20824 16.6668 2.81588 16.5036 2.48949 16.1772C2.1631 15.8509 1.99991 15.4585 1.99991 15.0002V5.00016C1.99991 4.54183 2.1631 4.14947 2.48949 3.82308C2.81588 3.49669 3.20824 3.3335 3.66658 3.3335H16.9999C17.4582 3.3335 17.8506 3.49669 18.177 3.82308C18.5034 4.14947 18.6666 4.54183 18.6666 5.00016V15.0002C18.6666 15.4585 18.5034 15.8509 18.177 16.1772C17.8506 16.5036 17.4582 16.6668 16.9999 16.6668H3.66658ZM10.3332 10.8335L16.9999 6.66683V5.00016L10.3332 9.16683L3.66658 5.00016V6.66683L10.3332 10.8335Z" fill="#00A7E1"/>
</svg>
