<svg width="21" height="20" viewBox="0 0 21 20" fill="none" xmlns="http://www.w3.org/2000/svg">
    <path d="M10.772 12.1931C10.772 13.158 11.5614 13.9475 12.5263 13.9475H16.9122C17.8771 13.9475 18.6666 13.158 18.6666 12.1931C18.6666 11.2282 17.8771 10.4387 16.9122 10.4387H12.5263C11.5614 10.4387 10.772 11.2282 10.772 12.1931Z" fill="#F5BC00"/>
    <path d="M10.772 14.8246V16.579C10.772 17.5439 11.5614 18.3334 12.5263 18.3334C13.4912 18.3334 14.2807 17.5439 14.2807 16.579C14.2807 15.6141 13.4912 14.8246 12.5263 14.8246H10.772Z" fill="#F5BC00"/>
    <path d="M8.1403 10.4387C7.1754 10.4387 6.38594 11.2282 6.38594 12.1931V16.579C6.38594 17.5439 7.1754 18.3334 8.1403 18.3334C9.10519 18.3334 9.89465 17.5439 9.89465 16.579V12.1931C9.89465 11.2282 9.10519 10.4387 8.1403 10.4387Z" fill="#F55376"/>
    <path d="M5.50862 10.4387H3.75427C2.78937 10.4387 1.99991 11.2282 1.99991 12.1931C1.99991 13.158 2.78937 13.9475 3.75427 13.9475C4.71916 13.9475 5.50862 13.158 5.50862 12.1931V10.4387Z" fill="#F55376"/>
    <path d="M9.89452 7.8071C9.89452 6.84219 9.10506 6.05272 8.14016 6.05272H3.75427C2.78937 6.05272 1.99991 6.84219 1.99991 7.8071C1.99991 8.77202 2.78937 9.56149 3.75427 9.56149H8.14016C9.10506 9.56149 9.89452 8.77202 9.89452 7.8071Z" fill="#00B3D7"/>
    <path d="M9.89465 5.17553V3.42114C9.89465 2.45623 9.10519 1.66676 8.1403 1.66676C7.1754 1.66676 6.38594 2.45623 6.38594 3.42114C6.38594 4.38605 7.1754 5.17553 8.1403 5.17553H9.89465Z" fill="#00B3D7"/>
    <path d="M12.5263 9.56148C13.4912 9.56148 14.2807 8.77201 14.2807 7.8071V3.42113C14.2807 2.45622 13.4912 1.66675 12.5263 1.66675C11.5614 1.66675 10.772 2.45622 10.772 3.42113V7.8071C10.772 8.77201 11.5614 9.56148 12.5263 9.56148Z" fill="#00B569"/>
    <path d="M15.1576 9.56149H16.9119C17.8768 9.56149 18.6663 8.77202 18.6663 7.8071C18.6663 6.84219 17.8768 6.05272 16.9119 6.05272C15.947 6.05272 15.1576 6.84219 15.1576 7.8071V9.56149Z" fill="#00B569"/>
</svg>
