<svg width="21" height="20" viewBox="0 0 21 20" fill="none" xmlns="http://www.w3.org/2000/svg">
    <path d="M14.9732 15.0141C14.0525 15.0141 13.2992 14.2633 13.2992 13.3457C13.2992 12.4281 14.0525 11.6773 14.9732 11.6773C15.8939 11.6773 16.6472 12.4281 16.6472 13.3457C16.6472 14.2633 15.8939 15.0141 14.9732 15.0141Z" fill="#37474F"/>
    <path d="M14.9729 17.5167C13.7174 17.5167 12.5038 16.9328 11.7086 15.9735L13.006 14.9307C13.4663 15.5146 14.2196 15.89 14.9729 15.89C16.3539 15.89 17.4839 14.7639 17.4839 13.3874C17.4839 12.011 16.3539 10.8848 14.9729 10.8848C14.5544 10.8848 14.1359 11.0099 13.7593 11.1767L13.0478 11.5939L10.0765 6.25491L11.5412 5.46241L13.7593 9.3832C14.1778 9.25806 14.5962 9.17464 15.0147 9.17464C17.3165 9.17464 19.1997 11.0516 19.1997 13.3457C19.1997 15.6398 17.2746 17.5167 14.9729 17.5167Z" fill="#37474F"/>
    <path d="M6.1847 17.5167C3.88297 17.5167 1.99973 15.6398 1.99973 13.3457C1.99973 11.427 3.29707 9.80029 5.13846 9.29977L5.55696 10.9265C4.46886 11.2185 3.67372 12.2195 3.67372 13.3457C3.67372 14.7221 4.80366 15.8483 6.1847 15.8483C7.56575 15.8483 8.69569 14.7221 8.69569 13.3457V12.5115H13.5249L13.2992 13.3457L13.5298 14.1881L10.286 14.1799C9.90933 16.0986 8.19349 17.5167 6.1847 17.5167Z" fill="#37474F"/>
    <path d="M6.1847 15.0141C5.26401 15.0141 4.51071 14.2633 4.51071 13.3457C4.51071 12.4281 5.26401 11.6773 6.1847 11.6773C7.1054 11.6773 7.8587 12.4281 7.8587 13.3457C7.8587 14.2633 7.1054 15.0141 6.1847 15.0141Z" fill="#E91E63"/>
    <path d="M10.788 7.50622C9.86735 7.50622 9.11406 6.75543 9.11406 5.8378C9.11406 4.92017 9.86735 4.16938 10.788 4.16938C11.7087 4.16938 12.462 4.92017 12.462 5.8378C12.462 6.75543 11.7087 7.50622 10.788 7.50622Z" fill="#37474F"/>
    <path d="M6.89602 13.7628L5.47313 12.9286L7.94227 8.88267C7.10527 8.09017 6.60307 7.0057 6.60307 5.8378C6.60307 3.54372 8.48631 1.66675 10.7881 1.66675C13.0898 1.66675 14.973 3.54372 14.973 5.8378C14.973 6.2132 14.9312 6.54688 14.8475 6.88056L13.2153 6.46346C13.2572 6.25491 13.299 6.04635 13.299 5.8378C13.299 4.46135 12.1691 3.33517 10.7881 3.33517C9.40701 3.33517 8.27706 4.46135 8.27706 5.8378C8.27706 6.71372 8.73741 7.50622 9.49071 7.96504L10.2022 8.38214L6.89602 13.7628Z" fill="#E91E63"/>
    <path d="M13.7175 12.5115H13.299V14.1799H13.7175V12.5115Z" fill="#37474F"/>
</svg>
