<svg width="24" height="24" viewBox="0 0 24 24" fill="none" xmlns="http://www.w3.org/2000/svg">
<path fill-rule="evenodd" clip-rule="evenodd" d="M21.005 7.033C20.8739 7.03261 20.7442 7.0064 20.6233 6.95588C20.5024 6.90537 20.3926 6.83152 20.3002 6.73857C20.2078 6.64562 20.1346 6.53538 20.0848 6.41415C20.035 6.29291 20.0096 6.16306 20.01 6.032C20.0095 5.90086 20.0348 5.7709 20.0845 5.64955C20.1343 5.5282 20.2074 5.41784 20.2998 5.32478C20.3922 5.23172 20.5021 5.15779 20.6231 5.10721C20.7441 5.05663 20.8739 5.03039 21.005 5.03C21.554 5.03 21.999 5.478 21.999 6.032C21.9995 6.16301 21.9742 6.29284 21.9246 6.41407C21.8749 6.5353 21.8018 6.64555 21.7095 6.73851C21.6172 6.83148 21.5074 6.90534 21.3865 6.95587C21.2657 7.0064 21.136 7.03261 21.005 7.033ZM19.65 14.691L18.065 17.452C18.0204 17.5354 17.9465 17.5994 17.8575 17.6317C17.7685 17.664 17.6708 17.6623 17.583 17.627L15.609 16.83C15.1975 17.1467 14.7472 17.4095 14.269 17.612L13.969 19.726C13.9563 19.8196 13.9099 19.9053 13.8384 19.9669C13.767 20.0286 13.6754 20.0621 13.581 20.061H10.411C10.3166 20.0621 10.2251 20.0286 10.1536 19.9669C10.0821 19.9053 10.0357 19.8196 10.023 19.726L9.72201 17.612C9.24285 17.4121 8.79254 17.1491 8.38301 16.83L6.41001 17.627C6.32182 17.6598 6.22485 17.6602 6.13639 17.6282C6.04792 17.5961 5.97372 17.5337 5.92701 17.452L4.34201 14.691C4.29546 14.6084 4.27947 14.512 4.29684 14.4187C4.3142 14.3255 4.36383 14.2413 4.43701 14.181L6.11001 12.864C6.07462 12.6048 6.05592 12.3436 6.05401 12.082C6.05401 11.819 6.07701 11.556 6.11001 11.3L4.43701 9.984C4.36203 9.92473 4.31109 9.84029 4.29362 9.74633C4.27615 9.65236 4.29334 9.55525 4.34201 9.473L5.92701 6.713C5.97152 6.62915 6.04552 6.56476 6.13471 6.53225C6.22391 6.49975 6.32198 6.50144 6.41001 6.537L8.38301 7.335C8.79448 7.01876 9.2444 6.75599 9.72201 6.553L10.023 4.439C10.0357 4.34544 10.0821 4.25975 10.1536 4.19805C10.2251 4.13635 10.3166 4.1029 10.411 4.104H13.581C13.779 4.104 13.946 4.248 13.969 4.439L14.269 6.553C14.753 6.753 15.197 7.016 15.609 7.335L17.583 6.537C17.6712 6.50435 17.7681 6.50413 17.8564 6.53637C17.9447 6.56862 18.0186 6.63122 18.065 6.713L19.65 9.473C19.6969 9.5558 19.713 9.65252 19.6954 9.74605C19.6779 9.83958 19.6278 9.92387 19.554 9.984L17.883 11.3C17.915 11.556 17.938 11.811 17.938 12.082C17.938 12.354 17.915 12.609 17.883 12.864L19.554 14.181C19.6277 14.241 19.6778 14.3251 19.6953 14.4184C19.7129 14.5118 19.6968 14.6084 19.65 14.691ZM11.995 8.055C9.78901 8.055 7.99301 9.862 7.99301 12.084C7.99301 14.305 9.78901 16.112 11.995 16.112C14.202 16.112 15.996 14.305 15.996 12.084C15.996 9.862 14.202 8.055 11.995 8.055ZM12 3.003C11.8689 3.00261 11.7393 2.9764 11.6183 2.92588C11.4974 2.87537 11.3876 2.80152 11.2952 2.70857C11.2028 2.61562 11.1296 2.50538 11.0798 2.38415C11.03 2.26291 11.0046 2.13306 11.005 2.002C11.0045 1.87086 11.0298 1.7409 11.0795 1.61955C11.1293 1.4982 11.2024 1.38784 11.2948 1.29478C11.3872 1.20172 11.4971 1.12779 11.6181 1.07721C11.7391 1.02663 11.8689 1.00039 12 1C12.549 1 12.995 1.448 12.995 2.002C12.9954 2.13306 12.97 2.26291 12.9202 2.38415C12.8704 2.50538 12.7972 2.61562 12.7048 2.70857C12.6124 2.80152 12.5026 2.87537 12.3817 2.92588C12.2608 2.9764 12.1311 3.00261 12 3.003ZM2.99501 19.123C2.86386 19.1226 2.73408 19.0964 2.61309 19.0458C2.49209 18.9952 2.38225 18.9213 2.28984 18.8282C2.19743 18.7352 2.12427 18.6248 2.07454 18.5035C2.02481 18.3821 1.99948 18.2521 2.00001 18.121C1.99961 17.9899 2.02504 17.8601 2.07483 17.7389C2.12462 17.6176 2.1978 17.5074 2.29019 17.4144C2.38259 17.3215 2.49239 17.2476 2.61332 17.1971C2.73425 17.1466 2.86395 17.1204 2.99501 17.12C3.54501 17.12 3.99001 17.568 3.99001 18.121C3.99053 18.2521 3.96521 18.3821 3.91548 18.5035C3.86575 18.6248 3.79259 18.7352 3.70018 18.8282C3.60777 18.9213 3.49793 18.9952 3.37693 19.0458C3.25593 19.0964 3.12615 19.1226 2.99501 19.123ZM2.99501 7.033C2.86395 7.03261 2.73425 7.0064 2.61332 6.95588C2.49239 6.90537 2.38259 6.83152 2.29019 6.73857C2.1978 6.64562 2.12462 6.53538 2.07483 6.41415C2.02504 6.29291 1.99961 6.16306 2.00001 6.032C1.99948 5.90086 2.02481 5.7709 2.07454 5.64955C2.12427 5.5282 2.19743 5.41784 2.28984 5.32478C2.38225 5.23172 2.49209 5.15779 2.61309 5.10721C2.73408 5.05663 2.86386 5.03039 2.99501 5.03C3.54501 5.03 3.99001 5.478 3.99001 6.032C3.9904 6.16306 3.96498 6.29291 3.91519 6.41415C3.8654 6.53538 3.79222 6.64562 3.69982 6.73857C3.60743 6.83152 3.49763 6.90537 3.3767 6.95588C3.25577 7.0064 3.12607 7.03261 2.99501 7.033ZM12 20.982C12.549 20.982 12.995 21.43 12.995 21.983C12.9955 22.2477 12.8911 22.5018 12.7046 22.6896C12.5181 22.8775 12.2647 22.9837 12 22.985C11.7353 22.9837 11.4819 22.8775 11.2954 22.6896C11.1089 22.5018 11.0045 22.2477 11.005 21.983C11.0046 21.8519 11.03 21.7221 11.0798 21.6009C11.1296 21.4796 11.2028 21.3694 11.2952 21.2764C11.3876 21.1835 11.4974 21.1096 11.6183 21.0591C11.7393 21.0086 11.8689 20.9824 12 20.982ZM21.005 17.12C21.554 17.12 21.999 17.568 21.999 18.121C21.9995 18.2521 21.9742 18.3819 21.9246 18.5032C21.8749 18.6245 21.8018 18.7348 21.7095 18.8279C21.6172 18.9209 21.5075 18.9949 21.3866 19.0455C21.2657 19.0961 21.1361 19.1225 21.005 19.123C20.8739 19.1226 20.7441 19.0964 20.6231 19.0458C20.5021 18.9952 20.3922 18.9213 20.2998 18.8282C20.2074 18.7352 20.1343 18.6248 20.0845 18.5035C20.0348 18.3821 20.0095 18.2521 20.01 18.121C20.0096 17.9899 20.035 17.8601 20.0848 17.7389C20.1346 17.6176 20.2078 17.5074 20.3002 17.4144C20.3926 17.3215 20.5024 17.2476 20.6233 17.1971C20.7442 17.1466 20.8739 17.1204 21.005 17.12Z" fill="#7F7989"/>
</svg>
