<svg width="24" height="24" viewBox="0 0 24 24" fill="none" xmlns="http://www.w3.org/2000/svg">
<path fill-rule="evenodd" clip-rule="evenodd" d="M12 22C6.486 22 2 17.514 2 12C2 6.485 6.486 2 12 2C17.514 2 22 6.485 22 12C22 17.514 17.514 22 12 22ZM12 3.809C10.9243 3.80887 9.85912 4.02065 8.86528 4.43224C7.87145 4.84382 6.96843 5.44716 6.2078 6.2078C5.44716 6.96843 4.84382 7.87145 4.43224 8.86528C4.02065 9.85912 3.80887 10.9243 3.809 12C3.809 14.1724 4.67198 16.2558 6.20809 17.7919C7.7442 19.328 9.82761 20.191 12 20.191C14.1724 20.191 16.2558 19.328 17.7919 17.7919C19.328 16.2558 20.191 14.1724 20.191 12C20.191 10.9243 19.9791 9.85922 19.5675 8.86544C19.1559 7.87166 18.5525 6.96869 17.7919 6.20809C17.0313 5.44748 16.1283 4.84414 15.1346 4.4325C14.1408 4.02087 13.0757 3.809 12 3.809ZM15.234 16.957H15.084C14.466 16.957 14.14 16.624 14.14 15.994V11.137C14.14 9.538 13.547 8.855 12.159 8.855C10.773 8.855 9.878 10.046 9.878 11.887V15.994C9.878 16.632 9.547 16.957 8.896 16.957H8.765C8.118 16.957 7.802 16.641 7.802 15.994V8.174C7.802 7.544 8.135 7.212 8.765 7.212H8.896C9.534 7.212 9.859 7.535 9.859 8.174V8.287C10.459 7.599 11.388 7.043 12.497 7.043C14.848 7.043 16.197 8.514 16.197 11.081V15.994C16.197 16.641 15.881 16.957 15.234 16.957Z" fill="#7F7989"/>
</svg>
